<svg width="1920.000000pt" height="719.000000pt" viewBox="0 0 1920.000000 719.000000" xmlns="http://www.w3.org/2000/svg">
  <g transform="translate(0.000000,719.000000) scale(0.100000,-0.100000)" fill="#f5f5f5" stroke="none">
    <path d="M0 3595 l0 -3595 9600 0 9600 0 0 3595 0 3595 -9600 0 -9600 0 0
-3595z" />
  </g>
  <g transform="translate(0.000000,719.000000) scale(0.100000,-0.100000)" fill="#eeeeee" stroke="none">
    <path d="M405 7045 c83 -80 155 -144 160 -144 6 0 -57 65 -140 144 -82 80
-154 144 -160 144 -5 0 58 -65 140 -144z" />
    <path d="M655 7145 c27 -25 54 -45 60 -45 5 1 -12 21 -40 45 -27 25 -54 45
-60 45 -5 -1 12 -21 40 -45z" />
    <path d="M761 7068 c-71 -68 -140 -136 -152 -153 l-23 -30 54 50 c144 130 272
255 261 255 -6 0 -69 -55 -140 -122z" />
    <path d="M1104 7057 c77 -72 149 -139 160 -147 l21 -15 -20 25 c-33 42 -278
270 -289 270 -6 0 52 -60 128 -133z" />
    <path d="M1200 7145 c-24 -25 -40 -45 -35 -45 16 1 108 90 93 90 -8 0 -34 -20
-58 -45z" />
    <path d="M1450 7044 c-147 -138 -198 -194 -134 -146 47 36 310 292 299 292 -5
0 -80 -66 -165 -146z" />
    <path d="M2301 7071 c145 -137 194 -180 188 -164 -6 18 -290 283 -303 283 -6
0 46 -54 115 -119z" />
    <path d="M2585 7140 c27 -27 51 -47 54 -45 6 7 -80 95 -93 95 -6 0 12 -22 39
-50z" />
    <path d="M2677 7059 c-75 -72 -143 -141 -149 -152 -6 -12 59 45 145 127 87 82
157 151 157 153 0 14 -32 -14 -153 -128z" />
    <path d="M3051 7038 c88 -84 164 -153 169 -153 13 0 327 300 318 303 -5 2 -78
-63 -164 -145 l-156 -148 -151 147 c-84 81 -158 148 -164 148 -7 0 60 -69 148
-152z" />
    <path d="M3125 7145 l-49 -45 15 0 c8 0 35 20 59 45 24 25 40 45 35 45 -6 -1
-32 -21 -60 -45z" />
    <path d="M4255 7045 c83 -80 155 -144 160 -144 6 0 -57 65 -140 144 -82 80
-154 144 -160 144 -5 0 58 -65 140 -144z" />
    <path d="M4503 7145 c27 -25 54 -45 60 -45 7 1 -10 21 -38 45 -27 25 -54 45
-60 45 -5 -1 12 -21 38 -45z" />
    <path d="M4605 7062 c-141 -137 -208 -211 -110 -122 152 138 266 250 253 249
-7 0 -72 -57 -143 -127z" />
    <path d="M4959 7052 c79 -75 151 -141 160 -145 9 -4 -51 57 -133 137 -82 80
-154 146 -160 146 -6 0 54 -62 133 -138z" />
    <path d="M5050 7145 c-24 -24 -42 -47 -39 -49 2 -3 27 18 56 45 28 27 46 49
39 49 -6 0 -32 -20 -56 -45z" />
    <path d="M5300 7045 c-85 -80 -157 -151 -159 -157 -6 -19 37 19 190 165 79 75
140 137 134 137 -5 0 -80 -66 -165 -145z" />
    <path d="M6159 7063 c144 -137 186 -173 180 -155 -6 17 -291 282 -303 282 -6
0 49 -57 123 -127z" />
    <path d="M6435 7140 c27 -27 51 -47 54 -45 6 7 -80 95 -93 95 -6 0 12 -22 39
-50z" />
    <path d="M6527 7059 c-76 -72 -143 -141 -149 -152 -6 -12 59 46 145 128 87 82
157 150 157 152 0 14 -34 -15 -153 -128z" />
    <path d="M6838 7097 c53 -51 128 -122 165 -157 l68 -64 62 60 c219 209 263
254 253 254 -6 -1 -80 -67 -164 -148 l-154 -147 -151 147 c-84 81 -157 148
-164 148 -7 0 32 -42 85 -93z" />
    <path d="M6975 7145 l-50 -45 15 0 c9 0 36 20 60 45 24 25 40 45 35 45 -6 -1
-32 -21 -60 -45z" />
    <path d="M8105 7045 c83 -80 155 -145 160 -144 6 0 -57 65 -140 144 -82 79
-154 144 -160 144 -5 0 58 -65 140 -144z" />
    <path d="M8352 7145 c26 -25 53 -45 60 -45 15 1 -82 90 -97 90 -5 0 11 -21 37
-45z" />
    <path d="M8455 7062 c-143 -139 -208 -212 -105 -117 158 144 260 245 248 244
-7 0 -72 -57 -143 -127z" />
    <path d="M8815 7045 c83 -79 155 -144 160 -144 6 0 -57 65 -139 145 -82 79
-154 144 -160 144 -6 0 57 -65 139 -145z" />
    <path d="M8900 7145 c-24 -24 -42 -47 -39 -50 3 -2 27 18 54 45 27 28 45 50
39 50 -5 0 -30 -20 -54 -45z" />
    <path d="M9150 7045 c-85 -80 -157 -151 -159 -157 -6 -18 43 25 198 173 75 71
131 129 126 129 -6 0 -80 -65 -165 -145z" />
    <path d="M10014 7057 c77 -72 148 -138 159 -146 l20 -14 -4 11 c-6 16 -292
282 -304 282 -5 0 53 -60 129 -133z" />
    <path d="M10285 7140 c27 -27 51 -47 54 -45 6 7 -80 95 -93 95 -6 0 12 -22 39
-50z" />
    <path d="M10364 7045 c-82 -79 -144 -144 -139 -144 6 0 78 65 160 144 83 80
145 145 139 145 -6 0 -78 -65 -160 -145z" />
    <path d="M10692 7093 c57 -54 131 -124 165 -157 l63 -59 137 131 c157 148 190
182 177 182 -5 0 -78 -67 -163 -148 l-154 -147 -151 147 c-83 81 -157 148
-164 148 -7 0 34 -44 90 -97z" />
    <path d="M10825 7145 c-27 -24 -44 -44 -37 -45 7 0 34 20 60 45 26 24 43 45
37 45 -5 0 -32 -20 -60 -45z" />
    <path d="M11904 7093 c56 -54 129 -124 163 -157 l62 -60 68 64 c190 180 261
250 250 250 -7 0 -80 -67 -163 -148 l-151 -147 -154 147 c-85 81 -159 147
-165 148 -6 0 34 -44 90 -97z" />
    <path d="M12200 7145 c24 -25 51 -45 60 -45 l15 0 -50 45 c-27 24 -54 44 -60
45 -5 0 11 -20 35 -45z" />
    <path d="M12520 7188 c0 -2 70 -71 157 -153 86 -82 151 -140 145 -128 -7 12
-73 79 -147 150 -121 115 -155 143 -155 131z" />
    <path d="M12750 7145 c-24 -24 -42 -47 -39 -50 3 -2 27 18 54 45 27 28 45 50
39 50 -5 0 -30 -20 -54 -45z" />
    <path d="M13000 7045 c-85 -79 -157 -150 -159 -157 -6 -17 42 25 204 179 72
67 125 123 119 123 -5 0 -80 -65 -164 -145z" />
    <path d="M13869 7053 c153 -146 196 -184 190 -165 -6 16 -312 302 -324 302 -5
0 55 -62 134 -137z" />
    <path d="M14133 7141 c29 -27 54 -48 56 -45 7 7 -81 94 -95 94 -7 0 11 -22 39
-49z" />
    <path d="M14214 7044 c-82 -80 -142 -141 -133 -137 26 13 305 283 293 283 -6
0 -78 -66 -160 -146z" />
    <path d="M14542 7092 c56 -54 131 -124 165 -156 l63 -59 149 142 c158 150 178
171 165 171 -5 0 -78 -67 -163 -148 l-154 -148 -151 148 c-83 81 -157 148
-164 148 -8 0 33 -44 90 -98z" />
    <path d="M14675 7145 c-28 -24 -45 -44 -38 -45 6 0 33 20 60 45 26 24 43 44
38 45 -6 0 -33 -20 -60 -45z" />
    <path d="M15748 7097 c162 -155 212 -200 212 -190 0 13 -285 283 -299 283 -5
0 34 -42 87 -93z" />
    <path d="M16050 7145 c24 -25 51 -45 59 -45 l15 0 -49 45 c-28 24 -54 44 -60
45 -5 0 11 -20 35 -45z" />
    <path d="M16149 7057 c-138 -134 -212 -218 -103 -117 145 135 260 250 250 250
-6 -1 -72 -60 -147 -133z" />
    <path d="M16370 7187 c0 -2 72 -72 160 -156 l160 -153 43 38 c118 106 291 274
281 274 -6 0 -82 -66 -168 -147 l-156 -148 -152 148 c-131 127 -168 159 -168
144z" />
    <path d="M16600 7145 c-24 -24 -42 -47 -39 -50 3 -2 27 18 54 45 27 28 45 50
39 50 -5 0 -30 -20 -54 -45z" />
    <path d="M17725 7045 c135 -130 173 -162 163 -137 -6 16 -293 282 -303 282 -5
0 58 -65 140 -145z" />
    <path d="M17982 7141 c29 -27 55 -47 57 -45 8 7 -82 94 -97 94 -7 0 11 -22 40
-49z" />
    <path d="M18084 7068 c-71 -67 -138 -134 -149 -148 l-20 -25 21 15 c39 28 299
280 288 280 -5 0 -68 -55 -140 -122z" />
    <path d="M18396 7087 c60 -56 135 -127 166 -156 l58 -54 160 153 c88 84 158
155 156 158 -5 4 -224 -197 -291 -268 l-30 -31 -40 44 c-68 76 -263 257 -276
257 -6 0 37 -46 97 -103z" />
    <path d="M18525 7145 c-28 -24 -45 -44 -40 -45 6 0 33 20 60 45 28 24 45 44
40 45 -6 0 -33 -20 -60 -45z" />
    <path d="M1677 6923 c-119 -113 -215 -208 -213 -211 6 -5 74 57 290 262 l146
138 69 -63 c38 -35 135 -127 215 -203 81 -76 149 -136 152 -134 5 6 -426 418
-436 418 -3 -1 -103 -93 -223 -207z" />
    <path d="M3613 6934 c-115 -108 -215 -203 -223 -210 l-14 -14 12 0 c7 0 97 80
200 178 103 97 199 188 214 200 l26 24 212 -201 c117 -111 217 -201 223 -201
6 0 -2 13 -18 28 -261 249 -414 392 -419 392 -3 0 -99 -88 -213 -196z" />
    <path d="M5527 6923 c-120 -113 -215 -208 -213 -211 5 -5 71 55 300 272 l136
128 79 -73 c43 -41 140 -132 215 -203 75 -71 139 -127 142 -124 5 5 -419 411
-434 415 -4 1 -105 -90 -225 -204z" />
    <path d="M7467 6939 c-111 -106 -211 -200 -222 -210 l-19 -19 12 0 c7 0 99 82
205 183 106 100 202 190 214 200 l21 18 212 -200 c116 -111 216 -201 223 -201
6 0 0 11 -13 23 -14 13 -113 108 -221 210 -108 103 -200 187 -203 187 -4 0
-98 -86 -209 -191z" />
    <path d="M9377 6924 c-120 -114 -216 -209 -213 -212 3 -3 62 49 132 114 69 65
166 156 215 202 l89 84 89 -84 c49 -46 146 -137 215 -202 70 -65 129 -117 132
-114 5 5 -419 410 -434 415 -4 2 -105 -90 -225 -203z" />
    <path d="M11420 7037 c-52 -51 -151 -145 -219 -210 -68 -64 -119 -117 -113
-117 6 0 106 90 222 201 l212 200 21 -18 c12 -10 108 -100 214 -200 106 -101
198 -183 205 -183 l12 0 -19 18 c-11 11 -111 105 -222 210 -111 106 -206 192
-210 192 -4 0 -51 -42 -103 -93z" />
    <path d="M13227 6924 c-120 -114 -216 -209 -213 -212 3 -3 67 53 142 124 75
71 172 162 215 203 l79 73 136 -128 c230 -218 295 -277 300 -272 4 5 -419 410
-434 415 -4 2 -105 -90 -225 -203z" />
    <path d="M15275 7042 c-49 -48 -148 -143 -219 -210 -72 -67 -125 -122 -119
-122 6 0 106 90 223 201 l212 201 26 -24 c15 -12 111 -103 214 -200 103 -98
193 -178 200 -178 l12 0 -14 14 c-8 7 -108 102 -223 210 -114 108 -211 196
-215 196 -4 0 -47 -40 -97 -88z" />
    <path d="M17077 6924 c-120 -113 -216 -209 -213 -212 3 -2 71 58 152 134 80
76 177 168 215 203 l69 63 146 -138 c216 -205 284 -267 290 -262 4 5 -419 410
-435 416 -3 1 -104 -91 -224 -204z" />
    <path d="M0 7102 c0 -14 400 -392 414 -392 6 1 -17 27 -51 58 -33 31 -129 122
-212 201 -83 79 -151 139 -151 133z" />
    <path d="M18988 6912 c-114 -108 -205 -198 -203 -201 6 -5 99 79 275 247 80
77 143 142 140 145 -3 2 -98 -84 -212 -191z" />
    <path d="M496 6480 c-242 -229 -442 -423 -444 -431 -2 -8 27 16 64 52 38 36
237 224 442 418 l373 353 12 -5 c10 -4 493 -456 850 -795 20 -20 37 -32 37
-26 0 9 -789 762 -864 825 l-31 26 -439 -417z" />
    <path d="M2430 6489 c-239 -226 -442 -417 -450 -425 l-14 -14 11 0 c6 0 209
187 450 415 l438 415 75 -74 c41 -40 203 -193 360 -341 157 -148 322 -305 368
-349 45 -44 82 -75 82 -69 0 7 -170 173 -377 369 -208 197 -407 386 -443 421
l-65 63 -435 -411z" />
    <path d="M4346 6481 c-242 -229 -442 -423 -444 -431 -2 -8 29 17 69 56 269
258 809 764 816 764 5 0 207 -187 448 -415 241 -228 441 -412 444 -409 3 2
-15 24 -39 48 -60 58 -798 753 -830 782 l-25 22 -439 -417z" />
    <path d="M6285 6494 c-516 -487 -472 -444 -459 -444 6 0 209 187 450 415 l439
415 80 -78 c44 -43 208 -199 365 -347 157 -148 320 -302 363 -344 42 -42 77
-70 77 -64 0 6 -168 170 -372 364 -205 194 -405 383 -443 421 l-71 68 -429
-406z" />
    <path d="M8196 6482 c-242 -230 -442 -424 -444 -432 -3 -8 33 21 79 65 46 44
247 234 445 422 l361 341 438 -414 c241 -228 443 -414 449 -414 6 0 -7 17 -29
39 -49 47 -788 744 -830 782 l-30 27 -439 -416z" />
    <path d="M10144 6504 c-503 -475 -481 -454 -468 -454 6 0 208 186 449 414
l438 414 361 -341 c198 -188 398 -377 443 -421 46 -43 83 -74 83 -68 0 6 -163
165 -362 353 -200 189 -399 378 -444 421 l-80 78 -420 -396z" />
    <path d="M12043 6479 c-244 -231 -443 -425 -443 -432 0 -6 35 22 78 64 42 41
163 156 267 255 105 98 269 254 366 346 l175 167 438 -415 c241 -228 444 -414
450 -414 6 0 -5 15 -24 34 -40 38 -777 733 -830 782 l-35 32 -442 -419z" />
    <path d="M13999 6509 c-494 -466 -484 -457 -478 -463 3 -3 203 181 444 409
241 228 443 415 448 415 7 0 616 -570 815 -764 39 -39 72 -65 72 -59 0 6 -161
163 -357 349 -197 186 -397 376 -444 421 l-86 83 -414 -391z" />
    <path d="M15893 6479 c-244 -231 -443 -425 -443 -432 0 -6 37 25 83 69 45 44
210 201 367 349 157 148 319 301 360 341 l75 73 438 -414 c242 -228 444 -415
450 -415 6 0 -2 13 -18 29 -25 23 -690 651 -830 782 l-40 38 -442 -420z" />
    <path d="M17853 6514 c-483 -457 -488 -462 -482 -468 3 -3 202 181 443 409
242 228 443 415 448 415 5 0 205 -186 446 -414 240 -228 439 -412 442 -409 6
5 -31 41 -527 510 l-361 342 -409 -385z" />
    <path d="M3680 6660 c-80 -76 -143 -140 -140 -143 3 -3 66 52 140 123 74 71
139 129 144 130 5 0 71 -59 147 -131 77 -72 139 -127 139 -122 0 8 -78 86
-225 225 l-60 57 -145 -139z" />
    <path d="M7532 6662 c-78 -75 -143 -141 -142 -146 0 -4 59 47 131 115 71 68
136 128 144 133 l13 10 141 -133 c78 -73 141 -129 141 -124 0 8 -55 63 -220
220 l-65 62 -143 -137z" />
    <path d="M11382 6662 c-79 -76 -143 -141 -142 -146 0 -4 63 52 141 125 l141
133 13 -10 c8 -5 73 -65 146 -134 73 -69 130 -119 127 -111 -2 8 -67 74 -144
147 l-139 132 -143 -136z" />
    <path d="M15232 6663 c-78 -74 -142 -139 -142 -145 0 -5 62 49 139 121 76 72
143 131 148 131 5 0 18 -10 29 -21 45 -50 254 -240 254 -231 0 5 -64 70 -143
145 l-143 135 -142 -135z" />
    <path d="M1759 6664 c-74 -69 -138 -130 -143 -135 -5 -5 -7 -11 -4 -14 3 -4
68 53 144 124 76 72 142 131 146 131 4 0 56 -46 115 -102 159 -150 173 -163
173 -152 0 11 -276 274 -288 274 -5 0 -69 -57 -143 -126z" />
    <path d="M5614 6669 c-71 -67 -135 -128 -143 -135 -8 -7 -12 -16 -9 -19 3 -3
68 53 144 125 76 71 142 130 145 130 4 0 56 -46 116 -102 148 -140 176 -165
172 -151 -5 15 -277 273 -288 273 -5 0 -67 -55 -137 -121z" />
    <path d="M9453 6659 c-76 -72 -140 -136 -142 -142 -5 -16 18 5 162 141 66 61
123 112 127 112 4 0 61 -51 127 -112 144 -136 167 -157 162 -141 -5 15 -278
273 -289 273 -5 0 -70 -59 -147 -131z" />
    <path d="M13303 6660 c-76 -72 -140 -136 -142 -143 -4 -14 24 11 172 151 60
56 112 102 116 102 3 0 69 -59 145 -130 76 -72 141 -128 144 -125 3 3 -1 12
-9 19 -8 7 -72 68 -143 135 -70 66 -132 121 -137 121 -4 0 -70 -59 -146 -130z" />
    <path d="M17150 6658 c-77 -73 -140 -137 -140 -142 0 -11 14 2 173 152 59 56
111 102 115 102 4 0 70 -59 146 -131 76 -71 141 -128 144 -124 3 3 1 9 -4 14
-154 147 -279 261 -286 261 -4 0 -71 -60 -148 -132z" />
    <path d="M0 6764 c0 -6 59 -65 130 -133 72 -67 130 -119 130 -114 0 5 -39 47
-87 93 -137 132 -173 165 -173 154z" />
    <path d="M19064 6646 c-71 -68 -127 -126 -124 -129 3 -2 63 51 135 118 71 68
127 126 124 129 -3 3 -64 -50 -135 -118z" />
    <path d="M570 6214 c-201 -190 -367 -350 -369 -357 -2 -7 9 -1 25 13 34 30
564 530 651 613 l61 60 367 -348 c201 -191 368 -345 371 -342 3 3 -39 47 -93
99 -192 185 -635 603 -642 605 -3 2 -170 -153 -371 -343z" />
    <path d="M2490 6209 c-204 -193 -368 -354 -365 -357 3 -3 36 24 73 60 37 36
201 192 366 347 l299 282 41 -38 c22 -22 169 -160 326 -308 157 -148 304 -287
328 -309 23 -22 42 -36 42 -30 0 9 -539 525 -691 662 l-48 43 -371 -352z" />
    <path d="M4420 6215 c-201 -190 -367 -351 -369 -358 -2 -6 9 0 25 14 35 31
576 540 656 617 l56 55 362 -344 c200 -189 367 -345 371 -347 5 -2 9 0 8 5 -1
8 -725 696 -738 700 -3 2 -170 -153 -371 -342z" />
    <path d="M6385 6254 c-346 -329 -426 -408 -409 -403 7 2 175 159 374 347 l362
344 47 -44 c37 -36 504 -476 654 -617 20 -19 37 -31 37 -25 0 10 -723 697
-737 701 -5 1 -152 -135 -328 -303z" />
    <path d="M8270 6215 c-201 -190 -367 -351 -369 -357 -2 -7 12 1 30 18 41 36
582 546 656 617 l51 49 289 -272 c158 -151 323 -307 365 -349 43 -41 80 -72
83 -69 4 3 -159 163 -361 354 -202 192 -370 350 -373 351 -3 2 -170 -152 -371
-342z" />
    <path d="M10240 6259 c-338 -321 -432 -413 -414 -408 7 2 175 159 374 348
l362 343 52 -49 c52 -50 594 -561 654 -617 17 -16 32 -26 32 -20 0 10 -724
697 -738 701 -4 1 -149 -133 -322 -298z" />
    <path d="M12120 6215 c-201 -189 -366 -350 -369 -357 -2 -7 14 3 35 23 45 41
586 550 655 617 l47 44 293 -278 c162 -152 326 -309 366 -348 40 -38 75 -67
78 -64 3 3 -160 164 -364 357 -203 193 -371 351 -373 351 -2 0 -167 -155 -368
-345z" />
    <path d="M14038 6212 c-201 -191 -367 -351 -367 -355 -1 -5 3 -7 8 -5 4 2 171
158 371 347 l362 344 56 -55 c64 -61 612 -578 655 -617 15 -13 27 -21 27 -15
0 9 -724 697 -738 701 -4 1 -172 -154 -374 -345z" />
    <path d="M15969 6215 c-200 -189 -365 -349 -367 -357 -3 -7 15 5 39 28 44 41
578 544 655 617 l41 38 299 -282 c165 -155 329 -311 366 -347 37 -36 70 -63
73 -60 3 3 -157 160 -357 350 -200 189 -368 347 -374 350 l-11 7 -364 -344z" />
    <path d="M17965 6283 c-442 -419 -447 -424 -441 -430 3 -3 170 151 371 342
l367 348 56 -55 c233 -226 676 -637 681 -632 3 3 -19 29 -51 58 -31 28 -196
184 -368 346 -171 162 -314 296 -318 297 -4 1 -137 -122 -297 -274z" />
    <path d="M1825 6390 c-38 -38 -65 -70 -61 -70 5 0 38 28 73 62 l64 61 62 -61
c35 -34 67 -62 72 -62 5 0 -22 32 -60 70 -38 39 -72 70 -75 70 -3 0 -37 -31
-75 -70z" />
    <path d="M3755 6394 c-38 -34 -67 -66 -64 -69 3 -3 35 21 70 54 l64 59 66 -59
c37 -33 70 -59 74 -59 12 0 -22 35 -85 90 l-55 48 -70 -64z" />
    <path d="M5675 6390 c-38 -38 -65 -70 -60 -70 5 0 38 28 72 62 l63 62 63 -62
c34 -34 67 -62 72 -62 5 0 -22 32 -60 70 -38 39 -72 70 -75 70 -3 0 -37 -31
-75 -70z" />
    <path d="M7600 6389 c-41 -37 -70 -68 -65 -69 6 0 40 26 75 59 l65 58 66 -58
c36 -33 69 -59 73 -59 13 0 -2 17 -72 78 l-67 60 -75 -69z" />
    <path d="M9525 6390 c-38 -38 -65 -70 -60 -70 5 0 38 28 72 62 l63 62 63 -62
c34 -34 67 -62 72 -62 5 0 -22 32 -60 70 -38 39 -72 70 -75 70 -3 0 -37 -31
-75 -70z" />
    <path d="M11450 6389 c-41 -37 -71 -68 -66 -69 5 0 39 27 76 60 l68 59 18 -20
c31 -35 114 -102 120 -97 2 3 -28 35 -69 71 l-73 65 -74 -69z" />
    <path d="M13375 6390 c-38 -38 -65 -70 -60 -70 5 0 38 28 72 62 l63 62 63 -62
c34 -34 67 -62 72 -62 5 0 -22 32 -60 70 -38 39 -72 70 -75 70 -3 0 -37 -31
-75 -70z" />
    <path d="M15301 6393 c-39 -36 -70 -68 -67 -71 3 -2 36 23 74 56 l69 61 29
-30 c40 -42 104 -93 104 -82 0 5 -31 36 -68 70 l-68 61 -73 -65z" />
    <path d="M17225 6390 c-38 -38 -65 -70 -60 -70 5 0 37 28 72 62 l62 61 64 -61
c35 -34 68 -62 73 -62 4 0 -23 32 -61 70 -38 39 -72 70 -75 70 -3 0 -37 -31
-75 -70z" />
    <path d="M0 6423 c0 -10 106 -103 116 -103 11 0 -76 89 -98 101 -10 5 -18 6
-18 2z" />
    <path d="M19133 6376 c-32 -30 -53 -55 -48 -55 15 0 119 98 112 105 -3 4 -32
-19 -64 -50z" />
    <path d="M632 5936 l-301 -286 -144 141 c-80 77 -155 148 -167 156 -54 38 -4
-16 150 -160 l165 -155 165 157 c349 333 434 411 441 409 4 -2 141 -128 303
-281 162 -153 297 -278 301 -278 3 0 85 74 181 166 l175 166 170 -162 c93 -89
169 -157 169 -153 0 5 -75 82 -167 171 l-167 161 -16 -8 c-8 -5 -91 -83 -183
-173 l-168 -164 -9 16 c-9 17 -575 554 -589 559 -4 1 -144 -126 -309 -282z" />
    <path d="M2575 5954 c-315 -298 -335 -318 -317 -313 7 3 144 128 304 279 160
151 294 276 298 278 5 2 142 -123 304 -277 163 -155 300 -281 305 -281 7 0
139 122 311 286 l45 43 179 -168 180 -168 299 284 c165 156 304 282 308 281 4
-2 111 -100 236 -219 319 -301 353 -332 353 -322 0 10 -573 555 -589 561 -5 2
-145 -126 -312 -284 l-302 -287 -31 36 c-17 19 -96 96 -175 171 l-145 136 -55
-52 c-31 -28 -111 -105 -178 -170 l-121 -118 -301 285 c-165 157 -304 285
-308 285 -4 -1 -134 -120 -288 -266z" />
    <path d="M6405 5936 c-164 -156 -301 -290 -304 -297 -4 -16 15 2 357 326 134
126 247 231 252 233 4 2 141 -123 304 -278 163 -154 299 -280 304 -280 7 0
150 131 312 286 l45 43 179 -168 179 -169 300 285 c165 156 303 283 307 281 5
-2 142 -129 305 -283 163 -154 298 -280 300 -280 1 0 82 76 179 168 l176 169
176 -169 c97 -92 178 -168 179 -168 2 0 137 126 300 280 163 154 300 281 305
283 4 2 142 -125 307 -281 l300 -285 179 169 179 168 45 -43 c162 -155 305
-286 312 -286 5 0 141 126 304 280 162 154 298 280 302 280 4 -1 142 -129 307
-285 l299 -283 178 170 177 170 173 -165 c95 -91 177 -166 181 -167 5 -1 141
124 304 277 162 153 298 279 302 281 4 1 143 -125 308 -281 l299 -284 180 168
179 168 45 -43 c172 -164 304 -286 311 -286 5 0 142 126 305 281 162 154 299
279 304 277 4 -2 120 -109 257 -239 279 -265 322 -304 328 -297 5 4 -570 551
-586 556 -4 2 -144 -125 -309 -282 l-301 -285 -122 118 c-67 64 -147 141 -178
169 l-55 51 -140 -130 c-76 -71 -155 -149 -175 -171 l-36 -41 -302 286 c-166
158 -305 287 -309 287 -6 0 -62 -52 -468 -436 l-140 -133 -175 169 c-96 93
-176 170 -179 170 -3 0 -84 -76 -180 -169 l-174 -170 -71 67 c-38 36 -173 163
-298 281 -126 119 -232 217 -237 219 -5 2 -144 -125 -310 -282 l-301 -285
-127 123 c-70 67 -150 143 -178 169 l-50 46 -145 -135 c-79 -75 -158 -152
-175 -171 l-30 -36 -303 287 c-166 158 -307 286 -311 284 -8 -3 -94 -83 -535
-500 l-71 -67 -174 169 c-96 94 -177 170 -180 170 -3 0 -84 -76 -180 -170
l-174 -169 -71 67 c-441 417 -527 497 -535 500 -4 2 -145 -126 -311 -284
l-303 -287 -25 30 c-14 17 -93 94 -175 171 l-150 141 -50 -46 c-28 -25 -108
-102 -178 -169 l-127 -123 -301 284 c-165 157 -303 285 -307 285 -5 0 -143
-128 -308 -284z" />
    <path d="M18105 6078 c-82 -78 -218 -206 -301 -284 l-150 -143 -165 160 c-90
88 -171 164 -179 169 l-16 8 -167 -161 c-92 -89 -167 -166 -167 -171 0 -4 76
64 169 153 l170 162 175 -166 c96 -92 178 -166 181 -166 4 0 139 125 301 278
162 153 299 279 303 281 7 2 325 -293 518 -481 34 -34 65 -58 68 -55 6 6 -571
558 -583 558 -4 0 -74 -64 -157 -142z" />
    <path d="M5584 5832 c-88 -86 -169 -168 -179 -182 -19 -25 51 40 243 225 l103
99 87 -85 c202 -195 254 -243 244 -223 -10 19 -325 325 -333 324 -2 -1 -76
-72 -165 -158z" />
    <path d="M19057 5833 c-75 -70 -146 -141 -158 -158 l-23 -30 54 50 c142 128
272 256 268 261 -3 3 -67 -52 -141 -123z" />
    <path d="M720 5684 c-118 -112 -217 -210 -219 -217 -4 -15 18 5 250 226 l187
177 217 -206 c119 -113 220 -203 223 -199 3 3 -1 11 -9 19 -8 7 -100 93 -204
192 -105 98 -199 186 -210 195 l-20 17 -215 -204z" />
    <path d="M2641 5679 c-122 -116 -220 -214 -217 -217 3 -2 79 65 168 150 90 85
188 178 218 205 l55 50 215 -203 c118 -111 217 -200 220 -197 5 5 -23 32 -307
300 l-130 123 -222 -211z" />
    <path d="M4570 5684 c-118 -112 -217 -209 -219 -216 -5 -16 62 45 270 243
l166 159 217 -206 c120 -113 220 -203 224 -200 3 4 1 10 -4 14 -5 5 -95 89
-199 188 -105 98 -202 189 -215 200 l-25 22 -215 -204z" />
    <path d="M6584 5769 c-219 -207 -315 -302 -310 -307 3 -2 103 88 222 201 l217
206 156 -148 c227 -216 281 -264 281 -254 0 5 -66 72 -147 149 -82 76 -180
169 -219 207 l-71 67 -129 -121z" />
    <path d="M8420 5685 c-118 -112 -216 -209 -219 -216 -5 -16 64 46 276 248
l160 153 216 -205 c119 -113 219 -205 222 -205 4 0 5 3 3 8 -3 7 -362 349
-418 398 l-25 22 -215 -203z" />
    <path d="M10439 5773 c-232 -218 -320 -305 -315 -310 3 -3 103 87 222 201
l217 206 160 -153 c214 -204 277 -261 277 -249 0 6 -32 40 -71 76 -39 36 -138
129 -219 206 l-147 140 -124 -117z" />
    <path d="M12270 5685 c-118 -111 -216 -209 -219 -216 -5 -16 52 36 280 252
l156 148 217 -206 c119 -113 219 -203 222 -201 5 6 -254 257 -406 395 l-35 31
-215 -203z" />
    <path d="M14194 5683 c-121 -113 -220 -210 -222 -215 -2 -4 -1 -8 2 -8 4 0
104 92 222 205 l217 205 166 -159 c211 -202 271 -255 271 -243 0 5 -28 36 -62
67 -35 32 -133 125 -219 207 l-157 148 -218 -207z" />
    <path d="M16120 5685 c-118 -111 -216 -209 -219 -216 -5 -15 56 40 288 260
l147 140 214 -202 c117 -111 218 -203 224 -205 12 -3 -271 274 -374 367 l-65
59 -215 -203z" />
    <path d="M18048 5689 c-117 -111 -217 -205 -222 -210 -5 -5 -7 -11 -4 -15 3
-3 104 87 223 200 l217 206 187 -177 c245 -233 251 -239 251 -227 0 5 -99 103
-219 217 l-220 207 -213 -201z" />
    <path d="M1535 5309 c-501 -475 -527 -500 -521 -506 2 -3 201 181 441 408 240
228 440 415 443 416 4 2 204 -184 446 -412 241 -229 441 -413 444 -410 3 3 1
9 -4 14 -137 133 -880 831 -884 831 -3 0 -167 -154 -365 -341z" />
    <path d="M3375 5228 c-245 -231 -443 -424 -440 -426 3 -3 27 15 53 39 83 81
787 743 814 767 l26 24 384 -363 c210 -199 409 -387 440 -417 32 -31 60 -53
63 -50 5 5 -878 848 -889 848 -3 0 -205 -190 -451 -422z" />
    <path d="M5390 5314 c-531 -504 -533 -505 -527 -510 3 -3 202 180 442 408 240
227 441 413 445 413 5 0 194 -175 421 -390 410 -389 475 -448 468 -428 -4 12
-881 843 -889 843 -3 0 -165 -152 -360 -336z" />
    <path d="M7225 5229 c-245 -232 -443 -424 -440 -427 3 -3 29 17 58 44 99 96
793 749 814 767 l21 18 388 -367 c214 -202 413 -390 441 -417 29 -28 55 -48
58 -45 5 5 -879 848 -890 848 -2 0 -205 -190 -450 -421z" />
    <path d="M9155 5234 c-396 -375 -489 -466 -428 -423 11 8 209 194 442 414 232
220 426 400 431 400 5 0 205 -186 445 -413 241 -227 440 -410 443 -407 4 4
-14 25 -40 48 -26 23 -225 211 -443 417 -218 206 -399 376 -403 377 -4 2 -205
-185 -447 -413z" />
    <path d="M11103 5257 c-445 -423 -484 -461 -466 -456 7 2 202 184 434 404 233
220 430 406 440 413 l18 12 393 -371 c216 -205 414 -392 440 -417 26 -25 50
-43 53 -40 6 6 -881 848 -893 847 -4 0 -193 -177 -419 -392z" />
    <path d="M13005 5234 c-242 -229 -442 -421 -444 -427 -7 -20 58 39 468 428
227 215 416 390 421 390 4 0 205 -186 445 -413 240 -228 440 -411 443 -407 4
3 -10 21 -30 38 -20 18 -220 205 -443 417 -223 212 -409 386 -413 387 -4 2
-205 -184 -447 -413z" />
    <path d="M14955 5259 c-440 -418 -486 -463 -468 -458 6 2 208 190 448 417
l437 414 26 -24 c27 -24 731 -686 814 -767 26 -24 50 -42 53 -39 6 5 -882 848
-893 847 -4 0 -191 -176 -417 -390z" />
    <path d="M16855 5234 c-242 -228 -442 -420 -444 -427 -7 -19 56 39 473 433
223 212 410 385 415 385 5 0 205 -186 446 -414 240 -227 439 -410 443 -407 3
4 -8 19 -26 34 -17 15 -216 203 -442 417 -226 215 -414 391 -418 393 -4 1
-205 -185 -447 -414z" />
    <path d="M0 5623 c0 -6 163 -165 363 -354 199 -188 392 -372 429 -408 37 -36
70 -62 73 -59 3 3 -155 158 -352 344 -197 186 -393 372 -435 413 -43 41 -78
70 -78 64z" />
    <path d="M18805 5259 c-415 -394 -487 -463 -468 -458 17 6 863 809 863 820 0
5 -1 9 -2 8 -2 0 -178 -166 -393 -370z" />
    <path d="M792 5414 c-79 -75 -140 -139 -137 -142 3 -3 40 28 83 69 42 41 105
101 139 133 l62 59 136 -129 c75 -71 142 -130 148 -132 7 -2 -53 60 -133 137
-80 77 -147 140 -150 141 -3 0 -69 -61 -148 -136z" />
    <path d="M2710 5410 c-80 -77 -140 -140 -135 -140 6 0 73 59 149 131 l138 131
36 -34 c21 -18 83 -78 140 -132 57 -54 106 -96 109 -93 7 8 -275 278 -288 277
-2 -1 -69 -64 -149 -140z" />
    <path d="M4735 5503 c-131 -122 -235 -227 -230 -231 3 -3 43 30 88 74 45 43
108 103 139 133 l57 54 136 -129 c75 -71 141 -130 148 -132 7 -2 -53 60 -133
137 -80 77 -147 140 -150 140 -3 0 -27 -20 -55 -46z" />
    <path d="M6560 5410 c-80 -77 -140 -140 -135 -140 6 0 73 59 148 131 l138 132
42 -39 c23 -22 86 -82 140 -133 53 -52 100 -91 103 -88 7 7 -274 278 -287 277
-2 -1 -69 -64 -149 -140z" />
    <path d="M8590 5508 c-131 -121 -240 -231 -235 -236 3 -3 45 32 93 79 48 46
110 106 139 133 l52 49 135 -129 c75 -71 142 -130 149 -132 6 -2 -53 60 -133
137 -80 77 -147 140 -150 140 -3 0 -25 -18 -50 -41z" />
    <path d="M10410 5409 c-80 -77 -139 -139 -133 -137 7 2 74 61 149 132 l135
129 52 -49 c29 -27 91 -87 139 -133 48 -47 90 -82 93 -79 7 7 -273 279 -286
278 -2 -1 -69 -64 -149 -141z" />
    <path d="M12445 5513 c-120 -110 -246 -235 -241 -240 3 -3 50 36 103 88 54 51
117 111 140 133 l42 39 138 -132 c75 -72 142 -131 148 -131 9 0 -275 279 -285
279 -3 0 -23 -16 -45 -36z" />
    <path d="M14260 5409 c-80 -77 -140 -139 -133 -137 7 2 73 61 148 132 l136
129 57 -54 c31 -30 94 -90 139 -133 45 -44 85 -77 88 -74 7 6 -273 279 -286
278 -2 -1 -69 -64 -149 -141z" />
    <path d="M16194 5419 c-76 -72 -141 -136 -143 -142 -6 -16 50 27 94 73 22 23
75 73 117 111 l77 70 138 -130 c75 -72 142 -131 148 -131 10 0 -274 279 -286
280 -3 0 -68 -59 -145 -131z" />
    <path d="M18110 5409 c-80 -77 -140 -139 -133 -137 6 2 73 61 148 132 l136
129 62 -59 c34 -32 97 -92 139 -133 43 -41 80 -72 83 -69 6 5 -267 271 -282
275 -5 1 -73 -61 -153 -138z" />
    <path d="M3549 5057 c-152 -144 -320 -304 -374 -354 -53 -51 -92 -93 -86 -93
6 0 172 152 368 338 196 185 362 337 369 337 6 0 173 -152 369 -337 196 -186
362 -338 368 -338 13 0 35 -21 -338 330 -159 150 -315 297 -345 326 l-55 52
-276 -261z" />
    <path d="M7400 5058 c-151 -144 -320 -303 -374 -354 -55 -52 -94 -94 -88 -94
6 0 172 152 368 338 196 185 362 337 369 337 7 0 173 -152 370 -337 196 -186
362 -338 368 -338 6 0 0 11 -13 24 -14 12 -155 146 -315 296 -159 150 -317
299 -350 331 l-60 57 -275 -260z" />
    <path d="M11264 5072 c-143 -136 -312 -295 -374 -354 -63 -60 -109 -108 -102
-108 6 0 171 152 367 338 197 185 363 337 370 337 7 0 173 -152 369 -337 196
-186 362 -338 369 -338 l11 0 -19 19 c-175 163 -616 580 -665 627 l-65 63
-261 -247z" />
    <path d="M15010 4974 c-201 -190 -369 -350 -374 -355 l-10 -9 11 0 c6 0 172
152 368 338 196 185 362 337 369 337 7 0 173 -152 369 -337 196 -186 362 -338
369 -338 l12 0 -14 13 c-56 52 -609 574 -665 628 l-70 68 -365 -345z" />
    <path d="M1574 5009 c-381 -359 -422 -399 -409 -399 6 0 172 153 369 340 198
187 363 340 367 340 7 0 499 -460 666 -623 34 -34 65 -58 68 -55 7 6 -720 698
-733 698 -5 0 -153 -135 -328 -301z" />
    <path d="M5376 4964 c-202 -191 -364 -349 -361 -352 3 -3 24 13 48 35 215 207
682 643 688 643 6 0 498 -461 671 -628 32 -31 60 -53 63 -50 6 6 -721 698
-734 698 -5 0 -174 -156 -375 -346z" />
    <path d="M9225 4964 c-201 -191 -363 -349 -360 -352 3 -3 27 15 53 40 172 167
676 638 682 638 6 0 510 -471 682 -638 26 -25 50 -43 53 -40 6 6 -722 698
-735 698 -5 0 -173 -156 -375 -346z" />
    <path d="M13075 4964 c-201 -191 -363 -349 -360 -352 3 -3 31 19 63 50 173
167 665 628 671 628 6 0 473 -436 688 -643 24 -22 45 -38 48 -35 6 6 -723 698
-736 698 -4 0 -173 -156 -374 -346z" />
    <path d="M16925 4964 c-201 -191 -363 -349 -360 -352 3 -3 34 21 68 55 167
163 659 623 666 623 4 0 169 -153 367 -340 197 -187 363 -340 369 -340 13 0
-28 40 -409 399 -175 166 -323 301 -328 301 -4 0 -172 -156 -373 -346z" />
    <path d="M1 5282 c6 -18 699 -672 713 -672 13 0 22 -9 -349 340 -373 352 -368
347 -364 332z" />
    <path d="M18859 4974 c-409 -386 -386 -364 -372 -364 6 0 152 133 324 296 386
365 394 372 388 378 -3 3 -156 -137 -340 -310z" />
    <path d="M865 5149 c-36 -34 -65 -66 -65 -72 0 -6 19 7 43 29 23 22 54 50 69
63 l27 24 67 -62 c37 -34 70 -59 73 -55 6 6 -128 133 -141 134 -4 0 -37 -28
-73 -61z" />
    <path d="M2788 5145 c-37 -35 -64 -66 -59 -69 4 -3 34 22 66 54 33 33 64 60
70 60 6 0 37 -27 70 -60 32 -33 61 -57 64 -54 7 6 -121 134 -134 134 -5 -1
-40 -30 -77 -65z" />
    <path d="M4714 5148 c-35 -33 -64 -66 -64 -72 0 -6 21 10 48 35 26 24 57 53
69 63 l23 19 66 -62 c36 -34 69 -59 72 -56 7 6 -127 134 -141 135 -5 0 -38
-28 -73 -62z" />
    <path d="M6636 5145 c-37 -36 -62 -65 -54 -65 7 0 38 25 68 55 30 30 58 55 63
55 5 0 38 -28 73 -62 35 -33 64 -57 64 -52 0 13 -123 134 -135 134 -6 -1 -41
-30 -79 -65z" />
    <path d="M8564 5148 c-35 -33 -64 -65 -64 -71 0 -5 29 18 65 52 36 33 69 61
73 61 4 0 32 -25 62 -55 30 -30 61 -55 69 -55 l15 0 -69 65 c-39 35 -74 64
-78 65 -5 0 -38 -28 -73 -62z" />
    <path d="M10485 5145 c-38 -36 -63 -65 -56 -65 7 0 39 25 72 56 l59 57 17 -14
c10 -7 42 -35 71 -63 28 -28 52 -46 52 -40 0 13 -124 134 -137 134 -4 -1 -39
-30 -78 -65z" />
    <path d="M12412 5147 c-34 -34 -62 -67 -62 -71 0 -5 29 19 64 52 35 34 68 62
73 62 5 0 33 -25 63 -55 30 -30 61 -55 68 -55 16 0 -117 129 -133 130 -6 0
-39 -28 -73 -63z" />
    <path d="M14335 5145 c-38 -35 -67 -67 -63 -70 3 -3 36 22 72 56 l66 62 23
-19 c12 -10 43 -39 70 -63 26 -25 47 -40 47 -34 0 12 -126 133 -138 133 -4 -1
-38 -30 -77 -65z" />
    <path d="M16261 5146 c-36 -36 -63 -68 -60 -70 3 -3 32 21 64 54 33 33 64 60
70 60 6 0 37 -27 70 -60 32 -32 62 -57 67 -54 8 5 -117 127 -136 132 -6 1 -40
-27 -75 -62z" />
    <path d="M18185 5145 c-38 -35 -67 -66 -64 -69 3 -4 36 21 73 55 l67 62 27
-24 c15 -13 46 -41 70 -63 23 -22 42 -35 42 -29 0 12 -126 133 -138 133 -4 -1
-38 -30 -77 -65z" />
    <path d="M1710 4802 c-102 -97 -239 -228 -304 -289 -66 -62 -117 -115 -114
-118 3 -3 141 123 308 281 l302 286 77 -74 c63 -61 345 -329 494 -467 20 -19
37 -31 37 -25 0 9 -594 577 -609 581 -3 1 -89 -78 -191 -175z" />
    <path d="M3521 4692 l-303 -287 -172 167 c-94 93 -176 167 -183 165 -17 -3
-333 -306 -333 -319 0 -5 72 59 161 144 88 84 164 154 169 156 5 2 86 -70 181
-160 94 -90 175 -163 179 -163 5 0 118 104 251 230 134 127 269 254 300 282
l56 53 139 -132 c76 -72 208 -196 292 -276 84 -80 155 -143 158 -140 4 4 -428
419 -566 545 l-26 23 -303 -288z" />
    <path d="M5445 4694 c-165 -157 -302 -291 -304 -297 -5 -16 10 -2 331 302
l278 263 291 -277 c161 -151 295 -273 298 -269 3 3 -15 25 -40 47 -25 23 -157
148 -293 277 -137 129 -251 236 -255 237 -3 1 -141 -126 -306 -283z" />
    <path d="M7371 4693 l-303 -288 -157 153 c-86 84 -166 160 -178 169 l-23 15
-117 -110 c-133 -124 -236 -229 -213 -217 8 5 84 74 168 154 85 80 157 147
161 149 5 2 86 -70 181 -160 95 -90 176 -163 180 -163 4 0 120 106 256 235
137 130 272 257 300 282 l50 47 151 -142 c83 -78 214 -202 292 -276 77 -73
141 -129 141 -123 0 7 -339 333 -556 534 l-30 28 -303 -287z" />
    <path d="M9295 4694 c-165 -156 -302 -290 -304 -297 -5 -16 7 -5 332 302 l277
263 266 -254 c269 -256 330 -311 323 -291 -4 12 -576 556 -588 560 -3 1 -141
-126 -306 -283z" />
    <path d="M11217 4690 l-306 -290 -16 23 c-22 34 -325 319 -336 315 -12 -4
-291 -268 -319 -303 l-25 -30 20 15 c11 8 87 78 168 155 82 77 152 141 157
143 8 3 91 -74 297 -272 l62 -59 252 239 c138 131 275 260 303 286 l52 46 299
-281 c164 -155 301 -282 305 -282 4 0 85 73 180 163 95 90 176 162 181 160 4
-2 76 -69 161 -149 84 -80 160 -149 168 -154 23 -12 -80 93 -213 217 l-117
110 -23 -15 c-12 -9 -92 -85 -178 -169 l-157 -153 -228 218 c-126 120 -263
249 -305 287 l-76 70 -306 -290z" />
    <path d="M13145 4695 c-165 -157 -302 -291 -304 -297 -4 -16 2 -10 336 306
l272 257 302 -285 c166 -158 304 -284 307 -281 7 6 25 -11 -334 328 -150 142
-274 257 -275 257 -2 -1 -139 -129 -304 -285z" />
    <path d="M15072 4695 c-166 -157 -303 -285 -305 -285 -2 0 -64 59 -138 131
-74 72 -153 146 -177 166 l-43 36 -47 -44 c-207 -196 -259 -247 -276 -269
l-20 -25 24 20 c14 11 89 81 168 155 78 74 147 136 151 138 8 3 103 -84 303
-277 l57 -54 273 258 c150 142 287 271 303 286 l30 28 175 -165 c356 -337 410
-386 410 -377 0 8 -322 318 -536 516 l-51 47 -301 -285z" />
    <path d="M16995 4695 c-165 -156 -302 -290 -304 -297 -2 -7 14 3 35 23 75 68
420 394 495 467 l77 74 292 -277 c160 -152 295 -274 298 -270 3 3 -3 14 -14
24 -10 9 -143 135 -296 279 -152 144 -278 262 -280 262 -1 -1 -138 -129 -303
-285z" />
    <path d="M0 4945 c0 -12 560 -539 566 -533 5 6 -550 538 -561 538 -3 0 -5 -2
-5 -5z" />
    <path d="M18906 4681 c-157 -149 -287 -271 -289 -271 -2 0 -60 54 -128 121
-68 66 -148 141 -177 166 l-53 46 -42 -39 c-192 -181 -265 -252 -282 -274
l-20 -25 34 28 c18 15 93 85 167 155 74 70 138 128 143 130 7 2 130 -110 313
-286 l47 -45 278 263 c153 145 284 269 292 276 8 8 12 16 9 20 -4 3 -135 -116
-292 -265z" />
    <path d="M782 4598 c-83 -79 -161 -156 -173 -173 l-22 -30 44 41 c24 22 102
96 173 163 71 67 133 120 137 119 5 -2 69 -60 143 -130 74 -70 149 -140 167
-155 l34 -28 -20 26 c-24 30 -317 309 -326 309 -3 0 -74 -64 -157 -142z" />
    <path d="M4631 4598 c-83 -79 -160 -156 -172 -173 l-22 -30 54 51 c30 27 107
101 173 163 65 61 122 111 127 109 4 -2 73 -64 151 -138 79 -74 154 -144 168
-155 l24 -20 -20 25 c-24 32 -317 310 -326 310 -3 0 -74 -64 -157 -142z" />
    <path d="M8476 4594 c-86 -81 -163 -159 -172 -173 l-16 -26 58 55 c33 31 110
104 172 164 62 59 117 106 122 104 5 -2 75 -66 157 -143 81 -77 157 -146 168
-154 11 -7 -56 62 -150 153 -93 91 -173 166 -177 166 -4 0 -77 -66 -162 -146z" />
    <path d="M16169 4587 c-86 -84 -162 -161 -169 -172 -14 -20 27 18 228 209 56
53 106 96 111 94 5 -2 82 -72 170 -156 89 -85 161 -149 161 -144 0 13 -316
316 -333 319 -7 1 -82 -66 -168 -150z" />
    <path d="M1677 4433 c-120 -113 -215 -208 -213 -211 5 -5 54 40 300 272 l137
129 42 -39 c23 -22 120 -114 215 -204 95 -89 175 -161 178 -158 5 6 -424 418
-435 418 -3 0 -104 -93 -224 -207z" />
    <path d="M3622 4453 c-108 -102 -208 -197 -222 -210 -13 -12 -19 -23 -13 -23
7 0 107 90 223 200 116 110 213 200 216 200 3 0 100 -90 216 -200 116 -110
216 -200 222 -200 12 0 5 6 -250 248 -100 95 -185 172 -188 172 -4 0 -96 -84
-204 -187z" />
    <path d="M5527 4434 c-120 -114 -215 -209 -213 -212 3 -3 67 53 142 124 75 71
172 162 215 202 l79 74 63 -58 c34 -31 131 -122 215 -202 84 -80 155 -143 158
-140 5 6 -425 418 -436 418 -3 0 -103 -93 -223 -206z" />
    <path d="M7575 4552 c-49 -48 -148 -143 -219 -210 -72 -67 -125 -122 -118
-122 6 0 106 90 221 200 116 110 213 200 216 200 3 0 100 -90 216 -200 116
-110 216 -200 222 -200 13 0 19 -6 -244 243 -103 98 -191 177 -195 177 -5 0
-49 -40 -99 -88z" />
    <path d="M9377 4434 c-120 -114 -216 -209 -213 -212 3 -3 72 58 152 134 81 76
178 168 215 202 l69 64 69 -64 c37 -34 134 -126 215 -202 80 -76 149 -137 152
-134 5 5 -418 410 -433 415 -5 2 -106 -90 -226 -203z" />
    <path d="M11430 4557 c-47 -45 -146 -140 -220 -210 -74 -70 -130 -127 -123
-127 6 0 106 90 222 200 116 110 213 200 216 200 2 0 99 -90 215 -200 116
-110 217 -200 223 -200 6 0 -2 13 -18 28 -283 270 -414 392 -421 392 -5 0 -47
-37 -94 -83z" />
    <path d="M13227 4434 c-120 -114 -216 -209 -213 -212 3 -3 74 60 158 140 84
80 181 171 215 202 l63 58 79 -74 c43 -40 140 -131 215 -202 75 -71 139 -127
142 -124 5 5 -418 410 -434 416 -4 1 -106 -91 -225 -204z" />
    <path d="M15280 4557 c-47 -45 -146 -140 -220 -210 -74 -70 -130 -127 -124
-127 6 0 106 90 222 200 116 110 213 200 216 200 3 0 100 -90 216 -200 116
-110 216 -200 222 -200 7 0 1 11 -12 23 -343 325 -420 397 -427 397 -4 0 -46
-37 -93 -83z" />
    <path d="M17076 4434 c-119 -113 -215 -209 -212 -212 3 -3 83 69 178 158 95
90 192 182 215 204 l42 39 137 -129 c246 -233 295 -277 300 -272 5 5 -419 410
-435 416 -4 1 -105 -90 -225 -204z" />
    <path d="M0 4612 c0 -13 401 -392 414 -392 6 1 -21 31 -60 68 -40 37 -135 127
-213 201 -77 73 -141 129 -141 123z" />
    <path d="M18988 4422 c-114 -108 -206 -198 -203 -200 5 -6 101 80 285 257 74
71 133 131 130 134 -3 3 -98 -83 -212 -191z" />
    <path d="M496 3991 c-242 -229 -442 -423 -444 -431 -3 -8 33 21 79 65 47 44
247 234 446 422 l361 343 404 -382 c222 -209 420 -397 440 -416 21 -20 40 -33
43 -31 4 5 -818 789 -869 830 l-21 16 -439 -416z" />
    <path d="M2440 4009 c-511 -482 -477 -449 -464 -449 6 0 208 187 450 415 l439
415 70 -68 c167 -163 804 -762 810 -762 4 0 5 3 3 8 -1 4 -174 169 -383 366
-209 198 -407 386 -440 418 l-61 58 -424 -401z" />
    <path d="M4343 3988 c-244 -230 -443 -424 -443 -431 0 -6 35 22 78 64 42 42
205 196 362 344 157 148 321 304 366 347 l80 79 410 -387 c225 -212 424 -400
441 -417 18 -17 35 -28 38 -26 4 5 -792 764 -864 824 l-26 22 -442 -419z" />
    <path d="M6294 4014 c-503 -475 -481 -454 -468 -454 6 0 208 187 449 415 l439
414 80 -77 c405 -386 798 -754 802 -750 5 6 -94 103 -466 453 -157 148 -315
297 -351 332 l-65 64 -420 -397z" />
    <path d="M8196 3992 c-242 -230 -442 -424 -444 -432 -2 -8 33 21 79 66 46 44
212 201 369 349 157 148 319 301 360 342 l76 73 439 -415 c242 -228 444 -415
450 -415 5 0 -10 20 -35 44 -57 55 -798 754 -831 783 l-24 21 -439 -416z" />
    <path d="M10154 4024 c-488 -461 -491 -464 -478 -464 5 0 207 187 449 415
l439 415 76 -73 c41 -41 203 -194 360 -342 157 -148 322 -305 368 -349 45 -44
82 -75 82 -69 0 7 -165 169 -367 360 -203 191 -402 380 -444 420 l-76 73 -409
-386z" />
    <path d="M12115 4058 c-470 -444 -517 -490 -511 -496 4 -4 392 360 802 750
l80 77 439 -414 c241 -228 443 -415 449 -415 6 0 -7 17 -29 39 -54 52 -803
758 -835 787 l-25 22 -370 -350z" />
    <path d="M14009 4030 c-479 -453 -497 -470 -484 -470 6 0 208 187 450 415
l439 416 80 -79 c45 -43 209 -199 366 -347 157 -148 320 -302 363 -344 42 -42
77 -70 77 -64 0 6 -165 168 -367 359 -203 191 -402 381 -444 421 l-76 74 -404
-381z" />
    <path d="M15975 4068 c-496 -468 -527 -499 -521 -505 4 -4 586 540 816 763
l65 64 439 -415 c242 -228 444 -415 450 -415 6 0 -5 15 -24 34 -43 41 -793
748 -835 787 l-30 28 -360 -341z" />
    <path d="M17817 3989 c-246 -232 -445 -425 -442 -427 3 -3 22 10 43 30 20 20
219 207 440 417 l404 380 361 -342 c199 -188 399 -377 444 -421 46 -43 83 -74
83 -68 0 6 -163 164 -362 353 -200 188 -399 378 -444 421 l-81 79 -446 -422z" />
    <path d="M3682 4172 c-78 -75 -143 -141 -142 -146 0 -5 64 52 143 127 l143
135 142 -135 c78 -74 142 -131 142 -126 0 8 -95 102 -230 230 l-55 52 -143
-137z" />
    <path d="M7532 4172 c-79 -75 -143 -141 -142 -146 0 -4 64 53 143 127 l142
135 143 -135 c78 -74 142 -131 142 -126 0 8 -72 80 -225 225 l-60 57 -143
-137z" />
    <path d="M11383 4174 c-79 -75 -143 -140 -143 -146 0 -5 64 51 142 125 l143
135 142 -135 c79 -74 143 -131 143 -126 0 8 -49 57 -220 220 l-65 62 -142
-135z" />
    <path d="M15232 4173 c-78 -74 -142 -139 -142 -145 0 -5 64 51 142 125 l142
135 145 -137 c79 -75 142 -130 139 -122 -2 8 -67 74 -144 147 l-140 133 -142
-136z" />
    <path d="M1768 4184 c-68 -64 -132 -125 -142 -135 -11 -10 -17 -21 -14 -24 3
-3 67 53 143 125 76 71 142 130 147 130 5 0 70 -58 145 -130 75 -71 139 -127
142 -124 7 7 -271 273 -286 273 -7 1 -67 -51 -135 -115z" />
    <path d="M5622 4189 c-64 -62 -128 -122 -141 -135 -14 -13 -22 -26 -19 -29 3
-3 67 53 143 125 76 71 142 130 147 130 5 0 55 -44 111 -97 154 -147 177 -168
177 -157 0 12 -277 274 -290 274 -6 0 -63 -50 -128 -111z" />
    <path d="M9451 4168 c-78 -73 -141 -137 -141 -142 0 -11 21 7 172 152 60 56
113 102 118 102 5 0 58 -46 118 -102 151 -145 172 -163 172 -152 0 12 -278
274 -290 274 -5 0 -72 -60 -149 -132z" />
    <path d="M13300 4168 c-77 -73 -140 -137 -140 -142 0 -11 23 10 177 157 56 53
106 97 111 97 5 0 71 -59 147 -130 76 -72 140 -128 143 -125 6 6 8 4 -161 164
-65 61 -123 111 -128 111 -5 0 -72 -59 -149 -132z" />
    <path d="M17145 4165 c-77 -74 -137 -136 -134 -139 3 -3 67 53 142 124 75 72
140 130 145 130 5 0 71 -59 147 -130 76 -72 140 -128 143 -125 3 3 -3 14 -14
24 -210 200 -267 251 -277 250 -7 0 -75 -60 -152 -134z" />
    <path d="M0 4274 c0 -12 256 -255 262 -248 3 2 -38 46 -91 97 -142 136 -171
162 -171 151z" />
    <path d="M19062 4155 c-72 -68 -128 -126 -124 -129 9 -5 268 241 261 248 -3 3
-65 -50 -137 -119z" />
    <path d="M570 3725 c-201 -190 -367 -351 -369 -357 -6 -18 48 32 408 372 177
168 326 305 330 305 4 0 171 -154 370 -343 200 -189 366 -341 369 -337 4 4 -6
18 -22 32 -16 13 -181 169 -368 346 -187 177 -343 323 -347 324 -3 2 -170
-153 -371 -342z" />
    <path d="M2540 3769 c-339 -322 -431 -413 -414 -408 6 2 175 159 374 347 l362
344 37 -34 c81 -76 609 -575 654 -617 26 -25 47 -40 47 -35 0 11 -729 705
-739 703 -3 0 -148 -135 -321 -300z" />
    <path d="M4420 3725 c-201 -190 -367 -350 -369 -357 -6 -17 42 26 413 377 174
165 320 300 325 300 4 0 171 -155 370 -344 199 -188 365 -340 369 -336 4 4 -2
14 -14 24 -11 9 -177 165 -368 346 -192 182 -351 331 -355 332 -3 2 -170 -152
-371 -342z" />
    <path d="M6338 3722 c-201 -191 -367 -351 -367 -355 -1 -5 3 -7 8 -5 5 2 171
158 371 347 l362 343 41 -39 c50 -47 581 -547 651 -612 27 -25 47 -40 44 -33
-4 14 -728 702 -737 701 -4 0 -171 -156 -373 -347z" />
    <path d="M8270 3726 c-201 -190 -366 -351 -369 -358 -2 -7 16 5 40 28 60 56
593 557 651 612 l46 45 367 -348 c201 -191 368 -345 371 -342 3 3 -39 47 -93
99 -190 183 -635 603 -642 606 -3 1 -170 -153 -371 -342z" />
    <path d="M10265 3793 c-442 -419 -447 -424 -441 -430 3 -3 170 151 371 342
l367 348 46 -45 c26 -24 173 -163 327 -308 154 -145 299 -282 323 -304 23 -22
42 -36 42 -30 0 10 -722 697 -737 701 -4 1 -138 -122 -298 -274z" />
    <path d="M12120 3726 c-200 -189 -366 -350 -368 -358 -3 -7 17 8 44 33 70 65
601 565 651 612 l41 39 362 -343 c200 -189 366 -345 371 -347 5 -2 9 0 8 5 -1
8 -725 695 -738 701 -4 1 -171 -153 -371 -342z" />
    <path d="M14124 3802 c-155 -147 -320 -304 -369 -350 -48 -46 -85 -85 -82 -89
3 -3 169 150 368 338 199 189 366 344 370 344 5 0 151 -135 325 -300 372 -351
414 -390 414 -378 0 9 -724 696 -738 700 -4 1 -133 -118 -288 -265z" />
    <path d="M15967 3724 c-202 -191 -367 -352 -367 -358 0 -6 24 12 53 40 43 41
513 484 649 612 l36 34 289 -272 c158 -151 323 -307 365 -349 43 -41 80 -72
83 -69 4 3 -159 163 -361 354 -202 192 -370 350 -374 352 -3 1 -171 -154 -373
-344z" />
    <path d="M17975 3803 c-154 -146 -320 -303 -369 -350 -49 -46 -86 -86 -83 -89
3 -3 168 149 368 338 199 189 366 343 370 343 4 0 153 -137 330 -305 361 -341
409 -385 409 -373 0 8 -725 696 -738 700 -4 1 -133 -118 -287 -264z" />
    <path d="M1825 3900 c-38 -38 -65 -70 -60 -70 5 0 38 28 72 62 l63 62 65 -64
c35 -35 67 -61 70 -58 5 5 -117 130 -133 136 -4 1 -39 -29 -77 -68z" />
    <path d="M3755 3905 c-39 -35 -68 -66 -64 -69 3 -3 34 21 70 53 l65 59 65 -59
c35 -32 68 -58 74 -59 11 0 -57 72 -105 110 l-35 28 -70 -63z" />
    <path d="M5675 3900 c-38 -38 -65 -70 -60 -70 5 0 38 28 72 62 l63 62 63 -62
c34 -34 67 -62 72 -62 5 0 -22 32 -60 70 -38 39 -72 70 -75 70 -3 0 -37 -31
-75 -70z" />
    <path d="M7604 3905 c-38 -34 -67 -65 -64 -68 3 -3 35 20 70 52 l65 59 66 -59
c37 -33 70 -59 75 -59 10 0 -40 53 -97 100 l-45 39 -70 -64z" />
    <path d="M9525 3900 c-38 -38 -65 -70 -60 -70 5 0 38 28 72 62 l63 62 63 -62
c34 -34 67 -62 72 -62 5 0 -22 32 -60 70 -38 39 -72 70 -75 70 -3 0 -37 -31
-75 -70z" />
    <path d="M11451 3903 c-39 -36 -70 -68 -67 -71 3 -2 36 22 73 55 l68 61 65
-59 c35 -32 66 -56 69 -54 6 7 -16 31 -79 85 l-57 49 -72 -66z" />
    <path d="M13375 3900 c-38 -38 -65 -70 -60 -70 5 0 38 28 72 62 l63 62 63 -62
c34 -34 67 -62 72 -62 5 0 -22 32 -60 70 -38 39 -72 70 -75 70 -3 0 -37 -31
-75 -70z" />
    <path d="M15301 3904 c-40 -37 -70 -69 -67 -72 3 -2 36 23 73 56 l68 61 40
-37 c74 -69 95 -86 95 -75 0 6 -31 38 -69 72 l-69 61 -71 -66z" />
    <path d="M17227 3903 c-37 -36 -65 -68 -62 -71 3 -3 35 23 70 58 l65 64 63
-62 c34 -34 67 -62 72 -62 5 0 -22 32 -60 70 -38 39 -72 70 -75 70 -3 0 -36
-30 -73 -67z" />
    <path d="M2 3940 c4 -17 106 -115 113 -108 2 2 -23 31 -56 64 -34 32 -59 52
-57 44z" />
    <path d="M19135 3889 c-33 -34 -55 -60 -49 -58 21 7 116 99 112 109 -2 6 -30
-17 -63 -51z" />
    <path d="M631 3446 l-300 -284 -148 144 c-81 80 -156 150 -167 155 l-18 11 3
-9 c5 -12 317 -307 329 -311 5 -2 143 123 306 278 163 154 300 279 305 278 5
-2 135 -122 289 -268 155 -146 287 -267 293 -269 7 -2 -13 22 -43 52 -101 102
-534 507 -542 507 -4 0 -142 -128 -307 -284z" />
    <path d="M2585 3474 c-303 -286 -345 -328 -328 -323 7 2 144 128 304 279 160
151 295 276 300 278 5 2 137 -119 295 -268 157 -150 288 -269 292 -266 3 4 -1
12 -9 20 -8 7 -138 131 -291 274 -152 144 -280 262 -285 262 -4 0 -129 -115
-278 -256z" />
    <path d="M4481 3446 l-301 -285 -122 120 c-68 66 -148 142 -179 169 l-55 49
-152 -143 c-84 -79 -162 -156 -174 -172 l-23 -29 60 51 c33 29 69 62 80 74 11
12 63 62 116 111 l96 88 174 -164 c96 -91 178 -165 182 -165 4 0 141 126 303
280 162 154 298 280 302 280 4 0 90 -79 192 -176 312 -296 390 -367 395 -362
6 5 -568 551 -584 556 -6 2 -145 -125 -310 -282z" />
    <path d="M6445 3484 c-292 -275 -355 -338 -338 -333 7 2 143 128 303 279 161
151 296 276 300 278 5 2 138 -119 295 -268 157 -150 289 -269 292 -266 4 3 2
10 -3 15 -5 4 -136 128 -291 274 -155 147 -285 267 -290 267 -4 0 -125 -111
-268 -246z" />
    <path d="M8327 3445 l-297 -284 -113 110 c-61 61 -142 137 -178 169 l-66 59
-150 -142 c-83 -78 -162 -155 -174 -172 l-24 -30 70 61 c39 34 79 72 90 84 11
12 59 57 106 101 l85 78 175 -165 c96 -90 177 -164 182 -164 4 0 140 126 303
281 163 154 300 279 304 277 5 -2 110 -98 232 -214 309 -292 348 -327 353
-322 7 7 -572 552 -588 555 -6 1 -146 -126 -310 -282z" />
    <path d="M10300 3489 c-284 -268 -361 -343 -343 -338 6 2 143 128 303 279 160
151 295 276 300 278 5 2 137 -119 293 -267 157 -149 289 -271 292 -271 4 0 5
3 3 8 -6 13 -576 552 -585 552 -4 0 -123 -108 -263 -241z" />
    <path d="M12177 3445 l-298 -284 -137 133 c-75 73 -155 149 -178 169 l-41 36
-151 -142 c-164 -154 -246 -246 -117 -131 44 40 89 82 100 94 11 12 54 53 95
90 l76 68 174 -164 c96 -90 178 -164 182 -164 4 0 141 126 303 281 163 154
300 279 305 277 5 -2 114 -102 242 -223 317 -300 338 -319 343 -313 7 6 -572
552 -588 555 -7 1 -146 -126 -310 -282z" />
    <path d="M14255 3589 c-82 -78 -218 -206 -300 -285 l-151 -143 -174 169 c-96
94 -178 169 -182 167 -15 -5 -320 -301 -330 -321 -6 -11 66 53 160 143 l172
163 178 -170 177 -170 300 284 c165 156 303 284 307 284 4 0 135 -122 293
-271 157 -149 288 -269 291 -267 5 5 -61 70 -373 366 -111 106 -206 192 -210
192 -4 0 -75 -64 -158 -141z" />
    <path d="M16027 3445 l-299 -283 -131 127 c-73 70 -153 146 -178 169 l-46 41
-151 -142 c-83 -78 -161 -155 -173 -172 l-22 -30 39 36 c21 20 99 93 173 163
l135 126 40 -38 c183 -174 311 -292 317 -292 4 0 141 126 304 281 162 154 300
279 305 277 5 -2 116 -104 247 -228 302 -286 332 -314 338 -308 6 6 -573 552
-588 555 -7 1 -146 -126 -310 -282z" />
    <path d="M18115 3598 c-77 -72 -212 -200 -301 -284 l-160 -153 -175 169 c-96
93 -177 169 -181 167 -16 -5 -338 -320 -338 -330 0 -6 42 29 93 78 50 50 126
123 169 164 l76 74 179 -170 178 -170 200 189 c110 104 246 232 302 285 l103
95 39 -33 c22 -19 152 -141 291 -273 138 -131 253 -236 256 -233 6 5 -572 557
-584 557 -4 0 -70 -59 -147 -132z" />
    <path d="M1727 3337 c-92 -89 -167 -166 -167 -172 0 -5 33 22 73 60 39 39 116
113 170 165 l98 94 77 -75 c42 -41 119 -114 170 -164 50 -49 92 -84 92 -78 0
10 -322 325 -338 330 -4 1 -82 -71 -175 -160z" />
    <path d="M5577 3337 c-92 -89 -167 -166 -167 -172 0 -5 37 26 83 70 45 44 121
118 169 164 l87 85 172 -165 c95 -90 167 -154 161 -143 -10 20 -315 316 -330
321 -4 2 -82 -70 -175 -160z" />
    <path d="M9427 3337 c-92 -89 -167 -166 -167 -171 0 -4 77 65 170 154 l170
162 172 -163 c94 -90 166 -155 160 -143 -10 19 -324 324 -333 324 -2 0 -79
-73 -172 -163z" />
    <path d="M19050 3338 c-77 -73 -148 -144 -157 -158 l-16 -25 59 55 c149 137
265 252 261 257 -3 2 -69 -55 -147 -129z" />
    <path d="M720 3195 c-118 -112 -216 -210 -219 -217 -4 -15 12 0 261 235 l176
168 217 -206 c120 -113 220 -203 223 -200 3 3 -3 14 -14 24 -10 10 -110 104
-221 210 -111 105 -204 191 -205 191 -2 -1 -100 -93 -218 -205z" />
    <path d="M2643 3193 c-121 -115 -218 -211 -216 -215 2 -5 101 84 220 197 l216
204 129 -122 c250 -236 308 -289 308 -279 0 8 -131 135 -381 370 l-56 52 -220
-207z" />
    <path d="M4570 3195 c-118 -112 -216 -209 -219 -217 -5 -15 54 38 280 254
l157 148 217 -206 c119 -113 220 -203 223 -199 3 3 -3 14 -14 24 -10 9 -104
98 -209 197 -104 98 -197 184 -205 191 l-15 11 -215 -203z" />
    <path d="M6589 3283 c-288 -272 -321 -305 -316 -310 3 -3 103 88 223 201 l217
206 139 -133 c228 -216 298 -279 298 -269 0 5 -71 76 -157 158 -87 82 -186
175 -219 207 l-61 58 -124 -118z" />
    <path d="M8420 3195 c-118 -111 -216 -209 -219 -216 -5 -15 56 40 289 261
l147 140 218 -206 c119 -113 219 -203 223 -200 3 4 -1 12 -9 20 -8 7 -100 93
-204 192 -105 98 -199 186 -210 196 l-20 16 -215 -203z" />
    <path d="M10349 3199 c-118 -111 -218 -206 -223 -210 -5 -5 -7 -11 -4 -15 4
-3 104 87 223 200 l218 206 149 -143 c217 -205 288 -270 288 -260 0 5 -69 74
-152 154 -84 79 -183 172 -219 207 l-67 63 -213 -202z" />
    <path d="M12271 3196 c-118 -112 -217 -209 -220 -217 -4 -14 66 49 297 268
l139 133 216 -205 c119 -113 219 -205 222 -205 4 0 5 4 3 8 -3 7 -357 344
-418 399 l-25 22 -214 -203z" />
    <path d="M14203 3204 c-114 -108 -214 -203 -222 -210 -8 -7 -12 -16 -9 -19 3
-4 104 86 223 199 l217 206 157 -148 c227 -216 281 -265 281 -255 0 5 -64 70
-142 144 -79 74 -177 167 -219 207 l-77 73 -209 -197z" />
    <path d="M16117 3193 c-119 -113 -217 -210 -217 -215 0 -10 56 42 308 279
l129 122 216 -204 c119 -113 218 -202 220 -197 4 6 -276 277 -391 379 l-48 41
-217 -205z" />
    <path d="M18058 3209 c-112 -105 -212 -200 -222 -210 -11 -10 -17 -21 -14 -24
3 -3 103 87 222 200 l217 205 217 -205 c119 -112 219 -202 222 -199 3 4 -27
36 -66 73 -40 36 -139 130 -222 209 l-151 143 -203 -192z" />
    <path d="M1545 2828 c-192 -182 -392 -371 -444 -420 -52 -49 -91 -91 -88 -94
3 -3 202 181 442 408 240 227 439 414 443 416 4 1 205 -185 446 -413 242 -228
442 -413 445 -410 6 7 43 -29 -463 449 -231 218 -422 396 -425 396 -3 0 -163
-149 -356 -332z" />
    <path d="M3380 2744 c-242 -230 -440 -422 -440 -428 0 -6 24 12 53 40 120 116
803 760 819 772 l17 14 373 -353 c205 -194 403 -382 440 -418 37 -35 70 -62
73 -59 6 5 -878 848 -889 848 -3 0 -204 -187 -446 -416z" />
    <path d="M5305 2744 c-394 -373 -501 -478 -423 -418 14 10 213 197 442 414
229 217 420 396 424 397 4 2 205 -184 446 -412 241 -229 441 -413 444 -410 3
3 -1 12 -9 19 -129 125 -875 826 -879 826 -3 0 -203 -187 -445 -416z" />
    <path d="M7255 2769 c-442 -420 -486 -463 -468 -458 7 2 204 186 439 409 235
223 433 409 441 413 l13 8 378 -357 c207 -197 405 -384 439 -418 34 -33 65
-57 68 -54 7 6 -873 842 -889 845 -6 1 -195 -173 -421 -388z" />
    <path d="M9155 2744 c-242 -228 -442 -421 -444 -427 -7 -20 55 37 468 428 226
215 416 390 421 390 5 0 195 -175 421 -390 413 -391 475 -448 468 -428 -4 12
-881 843 -889 843 -3 0 -203 -187 -445 -416z" />
    <path d="M11115 2779 c-429 -407 -497 -473 -478 -468 6 2 208 190 447 417 240
226 438 412 441 412 4 0 659 -616 827 -779 32 -30 60 -52 63 -49 6 6 -880 848
-892 847 -4 0 -188 -171 -408 -380z" />
    <path d="M13015 2754 c-237 -223 -436 -412 -444 -420 -8 -7 -12 -16 -9 -19 3
-3 203 181 444 410 241 228 442 414 446 412 4 -1 195 -180 424 -397 229 -217
428 -404 442 -414 78 -60 -29 45 -423 418 -242 229 -442 416 -445 416 -3 0
-199 -183 -435 -406z" />
    <path d="M14965 2779 c-425 -403 -497 -473 -478 -468 6 2 208 190 448 417
l436 414 17 -14 c16 -12 700 -656 820 -772 28 -28 52 -46 52 -40 0 12 -876
844 -888 843 -4 0 -187 -171 -407 -380z" />
    <path d="M16875 2764 c-507 -478 -470 -442 -464 -449 3 -3 203 182 445 410
241 228 442 414 446 413 4 -2 203 -189 443 -416 240 -227 440 -410 443 -407 4
4 -12 23 -35 43 -23 20 -222 208 -443 417 -220 209 -404 381 -408 383 -5 1
-197 -176 -427 -394z" />
    <path d="M0 3133 c0 -6 159 -161 353 -344 193 -183 387 -367 429 -408 43 -41
80 -72 83 -69 4 3 -160 162 -362 353 -202 192 -398 378 -435 414 -38 36 -68
60 -68 54z" />
    <path d="M18820 2784 c-395 -374 -502 -479 -484 -473 17 6 864 809 864 820 0
5 -1 9 -2 9 -2 -1 -172 -161 -378 -356z" />
    <path d="M885 3013 c-154 -144 -236 -226 -230 -231 3 -3 45 32 93 79 48 46
110 106 139 133 l52 49 141 -133 c77 -73 143 -131 146 -128 4 5 -269 270 -284
275 -4 1 -29 -19 -57 -44z" />
    <path d="M2710 2919 c-80 -77 -139 -139 -133 -137 7 2 74 61 148 131 l135 129
58 -50 c31 -28 80 -74 107 -102 58 -60 130 -119 124 -103 -5 14 -279 273 -288
273 -3 -1 -71 -64 -151 -141z" />
    <path d="M4740 3018 c-151 -140 -241 -230 -236 -236 4 -3 48 34 99 84 51 49
113 109 139 133 l47 44 136 -129 c75 -71 142 -130 148 -132 7 -2 -53 60 -133
137 -80 77 -147 140 -150 140 -3 0 -25 -18 -50 -41z" />
    <path d="M6560 2919 c-80 -77 -139 -139 -133 -137 7 2 74 61 148 131 l135 129
68 -60 c37 -33 90 -84 117 -112 54 -55 110 -100 104 -82 -5 12 -280 272 -288
272 -3 -1 -71 -64 -151 -141z" />
    <path d="M8495 2929 c-77 -72 -141 -135 -143 -140 -9 -23 18 -2 107 84 53 50
115 109 138 131 l42 39 136 -129 c75 -71 141 -130 148 -132 7 -2 -53 60 -133
137 -80 77 -147 140 -150 141 -3 0 -69 -59 -145 -131z" />
    <path d="M10410 2919 c-80 -77 -140 -139 -133 -137 7 2 73 61 148 132 l136
129 42 -39 c23 -22 86 -81 140 -133 53 -52 100 -91 103 -88 8 7 -274 278 -287
277 -2 -1 -69 -64 -149 -141z" />
    <path d="M12344 2929 c-134 -126 -178 -175 -118 -131 16 11 52 44 79 72 28 28
80 79 117 112 l68 60 135 -129 c74 -70 141 -129 148 -131 6 -2 -53 60 -133
137 -80 77 -148 140 -151 141 -3 0 -68 -59 -145 -131z" />
    <path d="M14260 2919 c-80 -77 -140 -139 -133 -137 6 2 73 61 148 132 l136
129 47 -44 c26 -24 88 -84 139 -133 51 -50 95 -87 99 -84 3 4 -38 49 -93 100
-120 116 -189 178 -194 178 -2 0 -69 -64 -149 -141z" />
    <path d="M16194 2930 c-76 -72 -141 -136 -143 -143 -6 -16 66 43 124 103 28
28 76 74 107 102 l58 50 137 -131 c76 -72 142 -131 148 -131 10 0 -275 279
-286 280 -3 0 -69 -59 -145 -130z" />
    <path d="M18110 2920 c-80 -76 -141 -139 -136 -140 5 0 71 59 148 132 l139
131 52 -49 c29 -27 91 -87 139 -133 48 -47 90 -82 93 -79 4 3 -36 46 -87 95
-120 115 -194 183 -199 183 -2 0 -69 -63 -149 -140z" />
    <path d="M3559 2577 c-146 -139 -314 -298 -374 -354 -60 -57 -104 -103 -97
-103 10 0 441 401 672 626 l65 63 364 -345 c200 -189 369 -344 375 -344 13 0
10 2 -354 345 -157 148 -307 290 -335 316 l-50 48 -266 -252z" />
    <path d="M7419 2587 c-140 -133 -309 -293 -374 -354 -66 -62 -114 -113 -108
-113 10 0 435 396 678 631 l60 58 364 -345 c200 -189 368 -344 375 -344 13 0
22 -10 -344 335 -157 148 -310 292 -340 321 l-55 53 -256 -242z" />
    <path d="M11165 2489 c-198 -187 -367 -347 -375 -355 l-14 -14 11 0 c6 0 174
155 374 344 l364 345 60 -58 c244 -236 668 -631 678 -631 6 0 -2 13 -18 28
-17 16 -158 150 -315 297 -157 148 -312 294 -345 326 l-60 58 -360 -340z" />
    <path d="M15020 2494 c-424 -400 -397 -374 -384 -374 6 0 175 155 375 344
l364 345 65 -63 c233 -227 662 -626 673 -626 6 0 0 11 -13 23 -14 13 -153 145
-310 292 -157 148 -314 297 -350 331 l-65 63 -355 -335z" />
    <path d="M1526 2474 c-202 -191 -364 -349 -361 -352 3 -3 27 15 53 40 220 212
676 638 684 638 8 0 459 -422 655 -614 40 -38 75 -67 78 -64 7 7 -719 698
-734 698 -5 0 -174 -156 -375 -346z" />
    <path d="M5375 2474 c-201 -191 -363 -349 -360 -352 3 -3 29 17 58 45 198 192
671 633 678 633 7 0 480 -443 666 -623 34 -34 65 -58 68 -55 7 7 -720 698
-734 698 -6 0 -175 -156 -376 -346z" />
    <path d="M9225 2474 c-201 -191 -363 -349 -360 -352 3 -3 31 19 63 50 189 184
665 628 672 628 7 0 483 -444 672 -628 32 -31 60 -53 63 -50 7 7 -721 698
-735 698 -5 0 -174 -156 -375 -346z" />
    <path d="M13074 2474 c-201 -191 -362 -349 -359 -352 3 -3 34 21 68 55 186
180 659 623 666 623 7 0 480 -441 678 -633 29 -28 55 -48 58 -45 7 6 -722 698
-736 698 -5 0 -174 -156 -375 -346z" />
    <path d="M16970 2519 c-341 -324 -421 -403 -404 -398 7 2 172 156 368 342 196
185 360 337 365 337 7 0 467 -430 683 -638 26 -25 50 -43 53 -40 8 7 -724 698
-738 697 -7 0 -154 -135 -327 -300z" />
    <path d="M1 2792 c5 -17 700 -672 713 -672 13 0 9 4 -364 355 -351 331 -354
333 -349 317z" />
    <path d="M18864 2489 c-401 -378 -391 -369 -378 -369 6 0 156 138 335 306 396
374 384 362 378 369 -3 3 -154 -135 -335 -306z" />
    <path d="M2791 2659 c-41 -38 -68 -69 -60 -69 8 0 39 25 69 55 30 30 59 55 64
55 6 0 39 -28 73 -62 35 -34 63 -58 63 -52 0 5 -30 39 -67 76 l-68 66 -74 -69z" />
    <path d="M16265 2660 c-38 -38 -67 -72 -64 -74 3 -3 32 21 64 54 33 33 64 60
69 60 6 0 36 -25 67 -56 31 -31 62 -55 68 -53 5 2 -23 34 -63 71 l-73 67 -68
-69z" />
    <path d="M864 2658 c-35 -33 -64 -66 -64 -72 0 -6 21 10 48 35 26 24 57 53 69
63 l22 18 68 -60 c37 -33 70 -58 73 -55 6 6 -131 132 -143 133 -5 0 -38 -28
-73 -62z" />
    <path d="M4712 2657 c-34 -34 -62 -67 -62 -72 0 -5 24 13 53 41 28 28 60 56
69 63 l18 13 61 -56 c35 -31 67 -56 73 -56 14 1 -125 129 -139 130 -6 0 -39
-28 -73 -63z" />
    <path d="M6635 2655 c-38 -36 -64 -65 -57 -65 8 0 39 25 71 55 32 30 62 55 67
55 5 0 36 -27 69 -60 32 -33 61 -57 64 -54 7 6 -121 134 -134 134 -5 -1 -41
-30 -80 -65z" />
    <path d="M8562 2657 c-34 -34 -62 -67 -62 -71 0 -5 29 19 64 52 35 34 67 62
71 62 4 0 34 -25 67 -55 32 -30 65 -55 71 -55 14 1 -123 129 -138 130 -6 0
-39 -28 -73 -63z" />
    <path d="M10485 2655 c-38 -36 -65 -65 -58 -65 6 0 39 25 71 55 33 30 63 55
67 55 4 0 36 -28 71 -62 35 -33 64 -57 64 -52 0 13 -123 134 -135 134 -6 -1
-41 -30 -80 -65z" />
    <path d="M12410 2655 c-35 -35 -62 -67 -59 -69 3 -3 32 21 64 54 33 33 64 60
69 60 5 0 35 -25 67 -55 32 -30 63 -55 71 -55 15 0 -121 129 -137 130 -6 0
-39 -29 -75 -65z" />
    <path d="M14335 2655 c-38 -35 -65 -64 -59 -65 6 0 38 25 73 56 l61 56 18 -13
c9 -7 41 -35 70 -63 28 -28 52 -46 52 -40 0 13 -123 134 -135 134 -6 0 -41
-29 -80 -65z" />
    <path d="M18185 2656 c-38 -35 -68 -66 -65 -69 3 -3 36 22 73 55 l68 60 22
-18 c12 -10 43 -39 70 -63 26 -25 47 -41 47 -35 0 13 -124 134 -137 134 -4 0
-39 -29 -78 -64z" />
    <path d="M1675 2279 c-121 -116 -257 -244 -302 -285 l-82 -75 -128 124 c-70
68 -149 143 -175 167 l-48 42 -17 -13 c-47 -37 -294 -275 -313 -303 l-23 -31
59 56 c33 30 110 103 172 162 62 59 116 107 120 107 4 0 86 -74 182 -165 l174
-164 26 22 c14 13 150 142 303 287 l278 263 67 -65 c58 -55 371 -351 485 -457
20 -19 37 -31 37 -25 0 9 -574 557 -588 561 -4 1 -106 -93 -227 -208z" />
    <path d="M3522 2205 c-165 -157 -302 -285 -304 -285 -2 0 -79 74 -173 165 -93
90 -175 165 -180 165 -6 0 -87 -75 -180 -166 -94 -91 -163 -162 -155 -158 8 4
84 73 168 153 84 80 157 148 163 149 5 2 86 -70 180 -160 94 -89 175 -163 179
-163 4 0 120 106 256 235 137 130 272 257 300 283 l51 47 134 -126 c74 -70
205 -194 292 -276 86 -83 157 -146 157 -140 0 8 -490 479 -566 545 l-21 17
-301 -285z" />
    <path d="M5535 2289 c-115 -110 -251 -239 -302 -285 l-92 -86 -123 120 c-68
65 -146 140 -175 166 l-52 48 -13 -8 c-26 -16 -309 -290 -325 -314 -8 -14 13
2 48 36 234 221 280 264 287 264 4 0 86 -75 182 -165 l174 -165 31 28 c16 16
153 145 303 287 l273 258 72 -70 c68 -65 414 -392 485 -457 17 -16 32 -26 32
-20 0 9 -575 557 -588 561 -4 1 -101 -88 -217 -198z" />
    <path d="M7372 2205 c-165 -157 -302 -285 -304 -285 -2 0 -80 74 -173 165 -94
91 -176 164 -182 162 -15 -2 -285 -256 -323 -302 l-25 -30 20 15 c11 8 87 78
168 155 81 77 152 141 157 143 5 2 86 -70 181 -160 94 -90 175 -163 179 -163
4 0 126 112 271 249 145 137 280 264 299 283 l36 33 141 -133 c77 -72 209
-197 292 -276 83 -79 151 -139 151 -133 0 8 -444 435 -561 540 l-26 22 -301
-285z" />
    <path d="M9395 2299 c-110 -105 -246 -233 -302 -286 l-102 -95 -118 114 c-157
153 -228 218 -237 218 -12 0 -314 -291 -333 -320 -9 -14 47 36 126 110 78 74
157 148 176 164 l35 30 48 -46 c26 -25 105 -100 176 -167 l129 -122 36 34 c20
18 155 146 300 283 145 137 267 249 271 249 4 0 126 -112 271 -249 325 -307
319 -302 319 -290 0 8 -575 557 -589 561 -3 1 -96 -84 -206 -188z" />
    <path d="M11222 2205 c-166 -157 -303 -285 -304 -285 -2 0 -80 74 -173 165
-94 90 -174 165 -180 165 -11 0 -299 -270 -330 -309 l-20 -26 40 32 c22 17 51
43 65 58 14 15 74 72 133 127 l108 101 34 -29 c19 -16 100 -91 179 -167 l145
-139 303 286 302 286 35 -33 c20 -18 155 -146 300 -283 145 -137 267 -249 271
-249 4 0 85 73 179 163 95 90 176 162 181 160 5 -2 76 -66 157 -143 81 -77
157 -147 168 -155 l19 -15 -19 25 c-30 38 -314 305 -328 307 -7 2 -88 -71
-182 -162 -93 -91 -171 -165 -173 -165 -2 0 -128 118 -280 262 -153 144 -289
272 -303 285 l-26 24 -301 -286z" />
    <path d="M13145 2205 c-165 -156 -301 -289 -303 -297 -3 -7 15 5 39 27 94 87
428 402 496 468 l72 70 273 -258 c150 -142 287 -271 304 -287 l30 -28 135 126
c74 70 153 145 176 167 l42 40 35 -29 c19 -16 100 -91 180 -167 l145 -139 302
287 302 286 41 -39 c280 -263 432 -406 484 -456 34 -33 62 -55 62 -49 0 9
-407 401 -547 526 l-41 38 -301 -286 c-165 -157 -302 -285 -304 -285 -1 0 -72
68 -157 151 -85 82 -165 157 -178 166 l-22 15 -53 -47 c-28 -27 -107 -102
-175 -168 l-123 -119 -52 48 c-29 27 -164 154 -300 284 -137 129 -252 236
-255 237 -4 1 -142 -126 -307 -282z" />
    <path d="M16995 2205 c-165 -156 -301 -289 -303 -297 -3 -7 17 7 44 32 131
122 436 411 496 468 l66 65 292 -277 c161 -152 295 -274 298 -271 3 3 -7 18
-24 34 -260 247 -558 526 -563 528 -3 1 -141 -125 -306 -282z" />
    <path d="M1 2459 c5 -17 558 -544 565 -537 5 5 -72 81 -375 368 -106 101 -192
177 -190 169z" />
    <path d="M18935 2219 c-143 -137 -275 -261 -293 -276 l-32 -26 -53 56 c-71 76
-285 277 -294 277 -11 0 -297 -270 -325 -306 l-23 -29 60 51 c33 29 71 64 85
79 14 15 64 63 112 107 l88 80 44 -38 c25 -22 106 -97 180 -167 l135 -129 288
274 c158 150 289 279 291 286 2 6 2 12 0 11 -2 0 -120 -113 -263 -250z" />
    <path d="M16169 2097 c-86 -84 -162 -161 -170 -172 -13 -20 73 59 237 219 51
48 97 87 102 85 6 -2 80 -70 164 -150 84 -80 160 -149 168 -153 8 -4 -61 67
-155 158 -93 91 -174 166 -180 166 -5 -1 -80 -69 -166 -153z" />
    <path d="M1677 1944 c-120 -114 -216 -209 -213 -212 3 -3 67 53 142 124 75 71
172 162 216 203 l79 74 32 -30 c18 -16 114 -107 215 -203 100 -95 185 -171
187 -168 3 3 -36 45 -87 95 -159 153 -341 323 -347 323 -3 0 -104 -93 -224
-206z" />
    <path d="M3725 2062 c-49 -48 -148 -143 -220 -210 -71 -67 -125 -122 -118
-122 6 0 106 90 222 200 116 110 213 200 217 200 4 0 86 -75 183 -167 251
-238 250 -237 256 -232 6 6 -423 413 -439 417 -6 1 -51 -38 -101 -86z" />
    <path d="M5527 1944 c-120 -113 -216 -209 -213 -212 3 -2 71 58 152 134 80 76
177 168 215 202 l69 64 52 -47 c29 -26 126 -117 215 -202 90 -86 166 -153 169
-151 5 6 -424 418 -435 418 -3 0 -104 -93 -224 -206z" />
    <path d="M7580 2067 c-47 -45 -146 -140 -220 -210 -74 -70 -130 -127 -124
-127 7 0 106 90 222 200 116 110 214 200 217 200 3 0 101 -90 217 -200 116
-110 216 -200 222 -200 6 1 -16 26 -49 57 -33 31 -133 125 -221 210 -89 84
-165 153 -170 153 -5 0 -47 -37 -94 -83z" />
    <path d="M9376 1944 c-119 -113 -215 -209 -212 -212 3 -2 76 62 162 144 86 82
183 173 215 202 l59 54 59 -54 c32 -29 129 -120 215 -202 86 -82 159 -146 162
-144 5 6 -425 418 -436 418 -3 0 -104 -93 -224 -206z" />
    <path d="M11435 2072 c-44 -43 -143 -137 -220 -210 -77 -72 -135 -132 -129
-132 6 0 106 90 222 200 116 110 214 200 217 200 3 0 101 -90 217 -200 116
-110 215 -200 222 -200 12 0 17 -5 -245 243 -103 98 -191 177 -195 177 -5 0
-45 -35 -89 -78z" />
    <path d="M13226 1944 c-120 -113 -215 -209 -212 -212 3 -2 79 65 169 151 89
85 186 176 215 202 l52 47 69 -64 c38 -34 135 -126 215 -202 81 -76 149 -136
152 -134 5 6 -426 418 -437 418 -3 0 -104 -93 -223 -206z" />
    <path d="M15290 2077 c-41 -40 -140 -134 -220 -210 -80 -75 -140 -137 -135
-137 6 0 106 90 222 200 117 110 214 200 217 200 4 0 101 -90 217 -200 117
-111 214 -198 217 -195 3 3 -7 18 -24 34 -271 258 -404 381 -410 381 -5 0 -43
-33 -84 -73z" />
    <path d="M17169 2034 c-210 -198 -310 -297 -304 -302 2 -3 87 73 187 168 101
96 197 187 215 203 l32 30 79 -74 c44 -41 141 -132 216 -203 75 -71 139 -127
142 -124 5 6 -418 410 -434 416 -5 1 -64 -50 -133 -114z" />
    <path d="M0 2122 c0 -12 395 -386 413 -390 6 -2 -29 37 -80 85 -222 213 -333
315 -333 305z" />
    <path d="M18987 1932 c-114 -107 -205 -197 -202 -200 8 -8 423 382 415 391 -3
3 -98 -83 -213 -191z" />
    <path d="M492 1498 c-244 -231 -441 -422 -438 -425 5 -5 111 94 697 650 l188
177 393 -371 c216 -205 414 -392 440 -417 26 -25 50 -43 53 -40 5 4 -853 824
-879 839 l-11 7 -443 -420z" />
    <path d="M2449 1529 c-495 -467 -486 -459 -473 -459 5 0 208 187 449 415 l439
415 61 -58 c255 -248 817 -772 827 -772 l12 0 -14 14 c-40 36 -792 746 -836
788 l-50 49 -415 -392z" />
    <path d="M4410 1563 c-484 -457 -512 -485 -506 -491 5 -4 598 552 807 755 l76
74 399 -377 c219 -207 418 -395 441 -417 24 -23 45 -38 48 -35 5 4 -835 806
-874 834 l-16 12 -375 -355z" />
    <path d="M6309 1539 c-483 -456 -497 -469 -484 -469 6 0 208 187 450 415 l439
415 66 -63 c172 -167 809 -767 815 -767 4 0 5 4 3 8 -1 4 -176 171 -388 372
-212 200 -410 388 -441 417 l-56 54 -404 -382z" />
    <path d="M8195 1502 c-242 -229 -442 -420 -444 -425 -2 -5 1 -8 6 -6 10 4 647
604 809 761 l70 69 410 -387 c225 -212 424 -400 441 -417 18 -17 35 -28 38
-26 4 5 -815 787 -870 830 l-20 17 -440 -416z" />
    <path d="M10164 1545 c-473 -447 -502 -475 -489 -475 6 0 208 187 449 415
l440 416 70 -69 c162 -157 799 -757 809 -761 5 -2 8 1 6 6 -2 5 -175 170 -384
367 -209 198 -407 386 -441 418 l-61 59 -399 -376z" />
    <path d="M12125 1578 c-494 -466 -527 -499 -521 -505 4 -4 586 540 816 764
l66 63 439 -415 c242 -228 444 -415 450 -415 5 0 -13 22 -40 49 -59 57 -790
746 -826 778 l-24 22 -360 -341z" />
    <path d="M13966 1499 c-245 -232 -444 -425 -441 -427 3 -3 24 12 48 35 23 22
222 210 441 417 l399 377 76 -74 c205 -199 802 -759 807 -755 5 6 -78 87 -461
448 -159 150 -320 302 -356 337 l-66 65 -447 -423z" />
    <path d="M15985 1588 c-539 -509 -548 -518 -536 -518 9 0 585 537 826 772 l61
58 439 -415 c241 -228 444 -415 449 -415 6 0 -9 20 -34 44 -50 48 -790 746
-830 782 l-25 23 -350 -331z" />
    <path d="M17816 1500 c-245 -233 -444 -425 -441 -428 3 -3 27 15 53 40 26 25
224 212 440 417 l393 371 188 -177 c585 -555 692 -655 697 -650 3 2 -163 163
-368 357 -205 194 -405 384 -444 423 l-72 69 -446 -422z" />
    <path d="M1783 1709 c-171 -161 -177 -168 -172 -174 3 -2 68 54 144 125 76 72
143 130 149 130 7 0 30 -18 51 -41 73 -74 235 -221 235 -212 0 5 -65 71 -144
146 l-145 137 -118 -111z" />
    <path d="M3682 1683 c-78 -74 -142 -139 -142 -145 0 -6 64 51 143 125 l143
136 141 -134 c77 -74 143 -132 146 -129 4 5 -115 123 -238 236 l-50 46 -143
-135z" />
    <path d="M5608 1685 c-79 -74 -145 -141 -147 -148 -4 -14 23 10 172 151 59 56
112 102 118 102 7 0 55 -42 108 -92 156 -151 181 -173 181 -162 0 5 -65 71
-144 147 l-145 137 -143 -135z" />
    <path d="M7532 1684 c-78 -75 -142 -140 -142 -146 0 -5 63 50 139 122 77 72
142 132 146 132 4 0 69 -59 146 -132 76 -72 139 -128 139 -123 0 8 -107 115
-235 235 l-50 47 -143 -135z" />
    <path d="M11382 1684 c-78 -75 -142 -140 -142 -146 0 -5 63 50 139 122 77 73
142 132 146 132 4 0 69 -60 146 -132 76 -72 139 -128 139 -123 0 8 -86 94
-230 230 l-55 53 -143 -136z" />
    <path d="M13300 1679 c-79 -76 -142 -140 -139 -143 3 -3 66 53 142 124 75 72
141 130 146 130 5 0 71 -58 147 -130 76 -71 140 -127 143 -124 5 4 -244 246
-278 270 l-16 11 -145 -138z" />
    <path d="M15229 1682 c-80 -75 -144 -140 -142 -145 2 -4 68 53 146 127 l141
135 143 -136 c79 -74 143 -131 143 -126 0 8 -65 73 -225 225 l-60 58 -146
-138z" />
    <path d="M17150 1679 c-79 -76 -142 -140 -139 -143 2 -3 66 53 141 124 75 72
140 130 146 130 5 0 71 -58 147 -130 76 -71 141 -127 144 -125 5 5 -223 227
-273 266 l-21 16 -145 -138z" />
    <path d="M9445 1675 c-76 -74 -137 -137 -134 -139 3 -3 67 53 142 124 76 72
142 130 147 130 5 0 71 -58 147 -130 75 -71 139 -127 142 -124 8 8 -272 273
-289 273 -8 0 -78 -60 -155 -134z" />
    <path d="M1 1783 c6 -18 256 -253 262 -247 3 3 -40 50 -96 104 -117 112 -172
159 -166 143z" />
    <path d="M19064 1668 c-71 -67 -128 -124 -126 -125 1 -2 4 -3 7 -3 11 -1 259
240 253 245 -3 3 -63 -50 -134 -117z" />
    <path d="M570 1235 c-201 -189 -367 -350 -369 -357 -6 -17 56 39 418 382 171
162 315 295 320 295 4 0 171 -154 371 -343 199 -189 365 -340 369 -336 3 3
-13 22 -35 43 -23 20 -189 176 -369 346 -179 171 -330 311 -333 313 -4 1 -171
-153 -372 -343z" />
    <path d="M2488 1232 c-201 -191 -367 -351 -367 -355 -1 -5 3 -7 8 -5 5 2 171
158 370 347 l362 343 27 -24 c42 -38 590 -555 655 -617 31 -30 57 -50 57 -44
0 11 -728 703 -739 702 -3 0 -171 -156 -373 -347z" />
    <path d="M4450 1264 c-399 -376 -405 -382 -399 -388 3 -3 169 150 369 339 201
190 368 344 371 342 4 -1 170 -156 369 -345 199 -189 365 -340 369 -337 3 4
-10 21 -31 38 -20 18 -185 174 -368 347 -183 173 -335 316 -339 318 -3 1 -157
-140 -341 -314z" />
    <path d="M6420 1308 c-428 -406 -452 -429 -446 -435 3 -3 168 149 367 338 199
189 365 345 368 347 6 2 472 -433 699 -651 23 -23 42 -36 42 -30 0 11 -728
703 -739 702 -3 0 -134 -122 -291 -271z" />
    <path d="M8267 1234 c-202 -191 -367 -352 -367 -358 0 -5 21 10 48 35 39 37
520 492 654 617 l37 35 366 -348 c202 -191 370 -344 373 -340 4 4 -5 17 -19
28 -15 12 -180 168 -369 347 -188 179 -345 326 -349 328 -4 1 -172 -154 -374
-344z" />
    <path d="M10276 1314 c-154 -146 -320 -303 -369 -350 -49 -47 -87 -88 -84 -90
3 -3 170 150 372 341 l366 348 37 -35 c134 -125 615 -580 655 -617 26 -25 47
-40 47 -35 0 11 -729 704 -739 704 -3 -1 -132 -120 -285 -266z" />
    <path d="M12117 1234 c-202 -191 -367 -351 -367 -357 0 -6 19 7 43 30 226 218
692 653 698 651 3 -2 169 -158 368 -347 199 -189 364 -341 367 -338 3 3 -39
47 -93 99 -192 185 -635 603 -642 606 -4 1 -172 -153 -374 -344z" />
    <path d="M14134 1322 c-149 -141 -315 -299 -369 -350 -54 -51 -95 -95 -92 -98
3 -3 168 149 367 338 199 189 365 344 369 345 3 2 170 -152 371 -342 200 -189
366 -342 369 -339 3 2 -11 20 -29 39 -99 97 -705 665 -710 665 -3 -1 -127
-117 -276 -258z" />
    <path d="M15966 1234 c-201 -191 -366 -351 -366 -357 0 -6 26 14 58 44 64 62
612 579 654 617 l27 24 362 -343 c199 -189 366 -346 372 -348 5 -2 8 1 6 6 -5
10 -735 703 -742 703 -3 0 -169 -156 -371 -346z" />
    <path d="M17890 1234 c-201 -190 -367 -351 -369 -357 -7 -20 42 25 388 353
189 179 347 325 352 325 5 0 149 -133 320 -295 364 -344 419 -395 419 -383 0
9 -724 696 -737 700 -5 1 -172 -153 -373 -343z" />
    <path d="M1825 1410 c-38 -38 -65 -70 -60 -70 5 0 38 28 72 62 l63 62 65 -64
c35 -35 68 -61 71 -57 4 4 -23 35 -61 69 -37 35 -71 64 -74 66 -4 1 -38 -29
-76 -68z" />
    <path d="M3757 1418 c-37 -33 -67 -64 -67 -70 0 -5 31 17 69 51 l68 61 66 -60
c36 -33 69 -60 73 -60 10 0 -82 95 -116 120 l-26 18 -67 -60z" />
    <path d="M5675 1410 c-38 -38 -65 -70 -60 -70 5 0 38 28 72 62 l63 62 65 -64
c35 -35 67 -61 71 -58 3 4 -24 35 -61 70 -37 35 -70 64 -74 66 -3 1 -38 -29
-76 -68z" />
    <path d="M7607 1419 c-37 -33 -67 -66 -67 -72 0 -6 17 5 38 24 20 19 51 47 67
61 l31 28 66 -60 c36 -33 70 -60 74 -60 10 0 -61 74 -107 110 l-35 29 -67 -60z" />
    <path d="M9527 1413 c-37 -36 -65 -68 -62 -71 3 -3 35 23 70 58 l65 64 65 -64
c35 -35 67 -61 70 -58 5 5 -118 130 -133 135 -4 2 -38 -27 -75 -64z" />
    <path d="M11451 1414 c-39 -37 -70 -69 -67 -71 3 -3 36 22 73 56 l67 61 31
-28 c16 -14 47 -42 68 -61 20 -19 37 -31 37 -25 0 9 -46 56 -111 112 l-26 23
-72 -67z" />
    <path d="M13377 1414 c-38 -36 -66 -68 -63 -72 4 -3 36 23 71 58 l65 64 63
-62 c34 -34 67 -62 72 -62 5 0 -22 32 -60 70 -38 39 -72 70 -75 70 -3 -1 -36
-30 -73 -66z" />
    <path d="M15301 1414 c-39 -37 -69 -69 -67 -72 3 -2 35 23 72 57 l67 61 68
-61 c38 -34 69 -57 69 -52 0 8 -26 35 -106 106 l-32 29 -71 -68z" />
    <path d="M17226 1414 c-38 -35 -66 -68 -62 -71 4 -4 36 22 71 57 l65 64 63
-62 c34 -34 67 -62 72 -62 5 0 -22 32 -60 70 -38 39 -72 70 -75 70 -3 -1 -36
-30 -74 -66z" />
    <path d="M0 1454 c0 -13 108 -119 114 -113 3 3 -21 32 -54 64 -33 33 -60 55
-60 49z" />
    <path d="M19135 1399 c-33 -34 -55 -60 -48 -58 19 7 114 100 111 110 -2 5 -30
-18 -63 -52z" />
    <path d="M2600 998 c-294 -276 -361 -342 -343 -337 6 2 143 128 303 279 160
151 296 276 301 278 5 2 142 -123 305 -277 163 -155 299 -281 303 -281 3 0 84
74 180 164 l175 165 35 -31 c20 -17 98 -90 174 -162 76 -72 142 -132 147 -134
4 -2 142 123 304 277 163 155 300 281 304 281 4 0 81 -70 172 -156 361 -341
411 -387 416 -382 5 6 -563 547 -583 555 l-12 5 -302 -286 -301 -287 -52 55
c-28 30 -107 107 -174 171 l-124 116 -66 -60 c-37 -33 -117 -108 -178 -168
l-111 -109 -50 46 c-28 25 -165 154 -305 286 l-254 242 -264 -250z" />
    <path d="M16032 960 l-304 -287 -111 109 c-62 60 -142 136 -179 169 l-66 59
-119 -110 c-65 -61 -143 -138 -174 -171 l-57 -59 -301 286 -302 286 -12 -5
c-20 -8 -608 -569 -603 -575 3 -3 70 56 148 130 380 359 454 428 460 428 4 0
141 -126 304 -281 162 -154 300 -279 304 -277 5 2 71 62 147 134 76 72 154
144 173 161 l36 31 174 -164 c96 -90 178 -164 181 -164 4 0 140 126 303 281
163 154 301 279 306 277 5 -2 114 -102 241 -223 300 -283 339 -319 344 -313 4
4 -279 276 -525 505 l-65 60 -303 -287z" />
    <path d="M629 955 l-301 -285 -57 59 c-102 107 -273 266 -270 251 4 -15 311
-311 329 -318 5 -2 142 123 305 277 162 155 299 281 303 281 7 0 106 -92 455
-423 81 -77 145 -132 141 -123 -7 19 -583 566 -596 566 -4 0 -144 -128 -309
-285z" />
    <path d="M6455 1004 c-279 -262 -366 -348 -348 -343 6 2 142 128 303 279 160
151 295 276 300 278 5 2 143 -123 306 -277 162 -155 299 -281 302 -281 4 0 86
74 181 165 l175 164 40 -37 c23 -20 101 -92 174 -161 73 -69 137 -127 141
-129 5 -2 142 123 305 278 163 154 299 280 303 280 7 0 77 -65 467 -434 75
-71 139 -127 142 -124 5 6 -583 567 -603 575 l-12 5 -303 -287 -302 -286 -45
50 c-26 27 -104 104 -175 170 l-128 121 -57 -49 c-31 -27 -111 -103 -178 -169
l-122 -120 -300 284 c-165 156 -303 284 -308 284 -4 0 -120 -106 -258 -236z" />
    <path d="M10252 954 c-167 -158 -301 -289 -298 -292 3 -3 67 53 142 124 390
369 460 434 467 434 4 0 140 -126 303 -280 163 -155 300 -280 305 -278 4 2 68
60 141 129 73 69 151 141 174 161 l40 37 175 -164 c95 -91 177 -165 181 -165
3 0 140 126 302 281 163 154 301 279 306 277 5 -2 140 -127 300 -278 161 -151
297 -277 303 -279 7 -2 3 6 -7 18 -33 37 -586 556 -596 559 -5 2 -145 -124
-310 -281 l-301 -285 -122 120 c-67 66 -147 142 -178 169 l-57 49 -123 -116
c-68 -63 -147 -140 -175 -170 l-50 -55 -302 286 c-165 157 -305 285 -309 285
-5 0 -145 -129 -311 -286z" />
    <path d="M18124 1118 c-71 -67 -206 -195 -299 -284 l-171 -163 -174 170 c-96
93 -178 168 -182 166 -17 -5 -339 -320 -333 -325 3 -3 47 34 98 84 51 49 124
120 164 158 l72 69 175 -167 c96 -92 179 -166 184 -164 5 1 140 127 300 278
160 151 295 276 301 278 5 2 136 -118 291 -265 156 -147 287 -270 293 -272 5
-2 8 1 6 6 -6 14 -578 553 -587 553 -5 0 -67 -55 -138 -122z" />
    <path d="M1727 847 c-92 -89 -167 -166 -167 -172 0 -5 37 26 83 70 45 44 121
118 169 165 l88 85 72 -70 c40 -39 114 -110 165 -159 51 -50 95 -87 98 -84 6
5 -317 320 -333 325 -4 2 -82 -70 -175 -160z" />
    <path d="M5577 847 c-92 -89 -167 -166 -167 -171 0 -4 77 65 171 155 l170 162
77 -74 c42 -41 119 -114 170 -164 50 -49 92 -84 92 -78 0 11 -322 325 -338
330 -4 2 -82 -70 -175 -160z" />
    <path d="M9428 849 c-93 -88 -168 -165 -168 -171 0 -6 77 63 170 152 l170 163
170 -163 c94 -89 170 -157 170 -152 0 10 -323 324 -338 329 -4 2 -82 -70 -174
-158z" />
    <path d="M13277 849 c-92 -89 -165 -164 -162 -167 3 -3 45 32 93 79 48 46 122
117 164 158 l77 74 172 -164 c95 -90 167 -154 161 -143 -10 20 -315 316 -330
321 -4 2 -83 -70 -175 -158z" />
    <path d="M19049 846 c-153 -148 -224 -228 -104 -116 161 148 256 242 253 250
-2 4 -69 -56 -149 -134z" />
    <path d="M720 706 c-118 -112 -216 -210 -219 -217 -5 -15 68 51 287 259 l151
143 217 -206 c119 -113 219 -203 222 -200 4 3 -7 18 -24 34 -245 233 -412 391
-415 391 -2 -1 -101 -92 -219 -204z" />
    <path d="M2643 703 c-121 -115 -216 -209 -212 -211 5 -2 104 87 220 197 l211
201 78 -73 c43 -39 141 -132 219 -206 77 -73 141 -129 141 -124 0 9 -174 178
-381 371 l-56 52 -220 -207z" />
    <path d="M4571 706 c-118 -111 -217 -209 -220 -217 -4 -14 66 49 297 269 l140
133 218 -206 c119 -113 219 -203 222 -200 3 3 -5 16 -19 29 -13 13 -113 107
-221 209 -108 103 -198 187 -200 187 -2 -1 -100 -92 -217 -204z" />
    <path d="M6499 709 c-118 -111 -218 -206 -223 -210 l-10 -9 12 0 c7 0 107 90
223 200 l211 200 130 -122 c269 -254 308 -289 308 -280 0 8 -130 134 -381 370
l-57 53 -213 -202z" />
    <path d="M8421 707 c-118 -112 -217 -210 -219 -217 -5 -14 53 38 306 278 l130
122 217 -205 c120 -113 220 -203 223 -200 3 3 -3 14 -14 24 -10 10 -110 104
-221 210 -112 105 -204 191 -205 191 -2 0 -99 -92 -217 -203z" />
    <path d="M10358 719 c-112 -105 -212 -200 -222 -210 -11 -10 -17 -21 -14 -24
3 -3 103 87 223 200 l217 205 140 -132 c245 -232 298 -280 298 -270 0 5 -71
76 -157 158 -87 82 -186 175 -220 207 l-61 59 -204 -193z" />
    <path d="M12267 704 c-119 -113 -217 -210 -217 -216 0 -9 38 25 308 280 l130
122 211 -200 c116 -110 216 -200 223 -200 l12 0 -14 13 c-8 8 -101 94 -205
193 -105 98 -199 187 -210 196 l-20 17 -218 -205z" />
    <path d="M14213 725 c-109 -104 -209 -198 -222 -211 -14 -13 -22 -26 -19 -29
3 -3 103 87 222 200 l218 206 140 -133 c229 -217 298 -280 298 -270 0 5 -69
74 -152 153 -84 79 -183 172 -220 207 l-67 64 -198 -187z" />
    <path d="M16117 703 c-119 -113 -217 -209 -217 -215 0 -6 64 50 141 123 78 74
176 167 219 206 l78 73 211 -201 c116 -110 215 -199 220 -197 7 3 -311 311
-398 385 l-37 31 -217 -205z" />
    <path d="M18165 822 c-49 -48 -148 -143 -219 -210 -71 -67 -127 -124 -124
-127 3 -3 103 87 222 200 l217 206 151 -143 c219 -208 288 -271 288 -260 0 8
-424 414 -439 419 -3 2 -46 -37 -96 -85z" />
    <path d="M1550 344 c-190 -179 -349 -330 -354 -335 l-10 -9 11 0 c7 0 166 146
355 325 189 179 345 325 349 325 3 0 160 -146 349 -325 189 -179 349 -325 354
-325 13 0 10 3 -378 369 -175 166 -322 301 -325 301 -3 0 -161 -147 -351 -326z" />
    <path d="M3500 370 c-344 -328 -391 -374 -373 -369 6 2 161 146 344 319 183
173 338 319 346 323 l14 8 267 -253 c147 -139 302 -286 344 -327 43 -41 80
-72 84 -69 6 7 -683 662 -700 665 -6 1 -153 -133 -326 -297z" />
    <path d="M5405 349 c-187 -176 -347 -327 -355 -335 l-14 -14 11 0 c6 0 166
146 355 325 188 179 345 325 348 325 3 0 160 -146 349 -325 190 -179 349 -325
355 -325 6 0 -3 13 -19 29 -110 108 -680 641 -684 641 -3 0 -159 -144 -346
-321z" />
    <path d="M7360 379 c-335 -318 -401 -383 -383 -378 6 2 165 149 352 327 187
177 343 322 346 322 6 0 459 -425 627 -589 37 -36 70 -62 73 -59 7 7 -682 662
-699 665 -6 1 -148 -128 -316 -288z" />
    <path d="M9260 354 c-406 -382 -377 -354 -364 -354 7 0 166 146 355 325 189
179 346 325 349 325 3 0 160 -146 349 -325 189 -179 348 -325 355 -325 13 0
42 -28 -364 354 -184 174 -337 316 -340 316 -3 0 -156 -142 -340 -316z" />
    <path d="M11215 384 c-326 -310 -406 -388 -388 -383 6 2 164 149 352 327 187
177 343 322 346 322 6 0 453 -420 632 -594 34 -33 65 -57 68 -54 7 6 -689 668
-702 667 -4 0 -143 -128 -308 -285z" />
    <path d="M13119 364 c-396 -374 -386 -364 -373 -364 6 0 165 146 355 325 189
179 346 325 349 325 3 0 160 -146 348 -325 189 -179 349 -325 355 -325 l11 0
-14 14 c-116 112 -696 656 -701 656 -3 0 -151 -138 -330 -306z" />
    <path d="M15070 389 c-319 -303 -411 -393 -394 -388 7 2 165 149 352 327 187
177 343 322 347 322 5 0 452 -420 637 -599 32 -30 60 -52 63 -49 6 6 -690 668
-702 667 -4 0 -141 -126 -303 -280z" />
    <path d="M16974 369 c-388 -366 -391 -369 -378 -369 5 0 165 146 354 325 189
179 346 325 349 325 4 0 160 -146 349 -325 189 -179 348 -325 355 -325 l11 0
-9 9 c-199 190 -702 661 -706 661 -3 0 -150 -135 -325 -301z" />
    <path d="M0 643 c0 -13 658 -637 677 -641 8 -2 -115 119 -274 269 -158 150
-314 297 -345 328 -32 30 -58 50 -58 44z" />
    <path d="M18851 324 c-189 -179 -337 -324 -329 -322 18 4 678 627 678 639 0 5
-1 9 -2 9 -2 0 -158 -147 -347 -326z" />
    <path d="M895 533 c-120 -110 -246 -235 -241 -240 3 -3 50 36 103 88 54 51
117 111 140 133 l42 39 141 -133 c77 -73 143 -130 146 -128 5 5 -269 271 -284
275 -4 1 -25 -14 -47 -34z" />
    <path d="M2710 429 c-80 -77 -140 -139 -133 -137 7 2 73 61 148 131 l135 129
48 -40 c26 -22 70 -64 97 -92 62 -64 150 -139 144 -123 -5 15 -277 273 -287
273 -4 -1 -72 -64 -152 -141z" />
    <path d="M4644 439 c-76 -72 -141 -136 -143 -142 -6 -16 50 27 94 73 22 23 75
73 118 112 l77 70 140 -132 c77 -73 143 -130 146 -128 4 5 -269 270 -285 276
-4 1 -70 -57 -147 -129z" />
    <path d="M6560 429 c-80 -77 -140 -139 -133 -137 6 2 73 61 147 131 l136 129
58 -50 c31 -28 75 -69 97 -92 52 -54 139 -128 134 -113 -5 14 -278 273 -287
273 -4 0 -72 -64 -152 -141z" />
    <path d="M8494 439 c-136 -128 -185 -184 -108 -122 21 17 57 50 79 73 22 23
70 69 107 102 l68 60 140 -132 c77 -73 143 -131 145 -128 5 5 -277 278 -287
278 -3 0 -68 -59 -144 -131z" />
    <path d="M10410 430 c-80 -76 -141 -139 -136 -140 5 0 71 59 147 131 l139 131
68 -60 c37 -33 85 -79 107 -102 48 -50 120 -108 114 -93 -5 13 -279 273 -288
273 -3 0 -71 -63 -151 -140z" />
    <path d="M12343 439 c-76 -72 -140 -136 -142 -142 -5 -15 82 59 134 113 22 23
66 64 97 92 l58 50 136 -129 c74 -70 141 -129 147 -131 7 -2 -53 60 -133 137
-80 77 -148 141 -152 141 -3 0 -68 -59 -145 -131z" />
    <path d="M14260 430 c-80 -76 -141 -139 -136 -140 5 0 71 59 148 132 l139 131
37 -34 c20 -19 83 -79 140 -133 57 -54 106 -96 109 -93 7 8 -274 278 -288 277
-2 0 -69 -63 -149 -140z" />
    <path d="M16193 440 c-76 -72 -140 -136 -142 -143 -6 -16 82 59 144 123 28 28
71 70 97 92 l48 40 135 -129 c75 -70 141 -129 148 -131 7 -2 -53 60 -133 137
-80 77 -148 140 -152 141 -4 0 -69 -59 -145 -130z" />
    <path d="M18110 430 c-80 -76 -141 -139 -136 -140 4 0 71 59 147 132 l140 131
42 -39 c23 -22 86 -82 140 -133 53 -52 100 -91 103 -88 7 7 -273 277 -287 277
-2 0 -69 -63 -149 -140z" />
    <path d="M1726 174 c-97 -92 -174 -169 -171 -172 3 -3 29 17 58 44 229 218
279 264 291 264 7 0 19 -7 26 -15 31 -37 311 -297 315 -293 3 3 -73 80 -169
172 l-174 166 -176 -166z" />
    <path d="M3648 172 c-97 -92 -174 -169 -172 -171 6 -6 57 38 212 186 l138 131
168 -159 c93 -87 174 -159 180 -159 9 0 -128 134 -299 292 l-50 46 -177 -166z" />
    <path d="M5575 174 c-96 -92 -173 -169 -171 -172 3 -3 62 49 131 114 69 65
146 137 170 158 l45 40 25 -20 c13 -10 90 -82 170 -158 80 -76 148 -137 150
-134 3 3 -73 80 -169 172 l-175 167 -176 -167z" />
    <path d="M7498 172 c-97 -92 -175 -169 -172 -171 5 -6 65 47 221 195 l128 122
169 -159 c93 -87 173 -159 179 -159 10 0 -92 99 -293 287 l-55 51 -177 -166z" />
    <path d="M11348 172 c-98 -91 -175 -168 -173 -171 6 -5 70 52 232 205 l118
112 168 -159 c93 -88 173 -159 179 -159 10 0 -67 75 -292 287 l-55 52 -177
-167z" />
    <path d="M13270 168 c-96 -93 -170 -168 -163 -166 6 2 83 72 172 156 88 83
165 152 170 152 5 0 82 -69 171 -152 89 -84 167 -154 173 -156 13 -4 -283 287
-323 317 l-25 19 -175 -170z" />
    <path d="M15215 189 c-205 -193 -201 -189 -189 -189 6 0 87 72 180 160 l169
159 65 -62 c210 -202 270 -257 281 -257 10 0 -34 44 -286 282 l-61 57 -159
-150z" />
    <path d="M17120 168 c-96 -93 -170 -168 -163 -166 6 2 83 72 171 156 88 83
165 152 170 152 6 0 84 -70 174 -155 89 -85 168 -155 173 -154 10 0 -251 255
-315 308 l-35 29 -175 -170z" />
    <path d="M9415 164 c-93 -91 -165 -164 -158 -162 6 2 84 72 173 156 88 83 165
152 170 152 5 0 82 -69 170 -152 89 -84 167 -154 173 -156 7 -2 -64 71 -158
162 -93 91 -177 165 -185 165 -8 0 -91 -74 -185 -165z" />
    <path d="M1 302 c6 -17 311 -302 323 -302 6 0 -50 58 -125 129 -155 148 -204
191 -198 173z" />
    <path d="M19032 158 c-89 -83 -160 -154 -157 -156 6 -6 51 34 204 180 69 65
122 120 119 123 -2 3 -77 -63 -166 -147z" />
    <path d="M2790 169 c-41 -38 -69 -69 -63 -69 7 0 41 27 75 59 l63 60 68 -67
c37 -36 67 -62 67 -56 0 5 -30 39 -67 76 l-68 66 -75 -69z" />
    <path d="M4715 170 c-38 -38 -67 -72 -64 -74 3 -3 32 21 64 54 33 33 63 60 68
60 5 0 37 -25 70 -55 34 -30 66 -55 70 -55 14 0 0 16 -71 78 l-69 61 -68 -69z" />
    <path d="M6640 169 c-41 -38 -70 -69 -64 -69 6 0 38 25 71 55 34 30 65 55 69
55 5 0 37 -28 71 -62 35 -34 63 -58 63 -52 0 5 -30 39 -67 76 l-68 66 -75 -69z" />
    <path d="M8565 170 c-38 -38 -67 -72 -64 -74 3 -3 32 21 64 54 33 33 64 60 70
60 7 0 22 -12 36 -26 34 -37 99 -87 105 -82 2 3 -29 35 -69 71 l-74 66 -68
-69z" />
    <path d="M10490 170 c-41 -38 -70 -69 -64 -70 6 0 38 25 71 55 34 30 65 55 69
55 5 0 37 -28 71 -62 35 -34 63 -58 63 -52 0 5 -30 40 -67 76 l-68 67 -75 -69z" />
    <path d="M12415 170 c-38 -38 -67 -72 -64 -74 3 -3 32 21 64 54 33 33 64 60
70 60 7 0 22 -12 36 -26 33 -36 99 -87 104 -82 3 3 -28 34 -68 71 l-74 66 -68
-69z" />
    <path d="M14340 170 c-41 -38 -70 -69 -65 -70 6 0 38 25 72 55 33 30 65 55 69
55 5 0 37 -28 71 -62 35 -34 63 -58 63 -52 0 5 -30 40 -67 76 l-68 67 -75 -69z" />
    <path d="M16265 170 c-38 -38 -67 -72 -64 -74 3 -3 34 23 69 59 l63 64 64 -59
c35 -33 68 -60 73 -60 6 0 10 1 10 3 0 1 -33 32 -73 69 l-74 67 -68 -69z" />
    <path d="M862 167 c-34 -34 -62 -67 -62 -71 0 -5 29 19 64 52 35 34 67 62 71
62 4 0 36 -25 71 -56 36 -31 67 -55 70 -52 6 7 -127 128 -141 128 -6 0 -39
-28 -73 -63z" />
    <path d="M18187 169 c-37 -34 -66 -64 -63 -67 3 -3 34 21 70 52 35 31 67 56
71 56 4 0 36 -28 71 -62 35 -33 64 -57 64 -52 0 13 -123 134 -135 134 -6 0
-41 -28 -78 -61z" />
  </g>
  <g transform="translate(0.000000,719.000000) scale(0.100000,-0.100000)" fill="#000000" stroke="none" />
  <g transform="translate(0.000000,719.000000) scale(0.100000,-0.100000)" fill="#000000" stroke="none" />
  <g transform="translate(0.000000,719.000000) scale(0.100000,-0.100000)" fill="#000000" stroke="none" />
  <g transform="translate(0.000000,719.000000) scale(0.100000,-0.100000)" fill="#000000" stroke="none" />
  <g transform="translate(0.000000,719.000000) scale(0.100000,-0.100000)" fill="#000000" stroke="none" />
  <g transform="translate(0.000000,719.000000) scale(0.100000,-0.100000)" fill="#000000" stroke="none" />
  <g transform="translate(0.000000,719.000000) scale(0.100000,-0.100000)" fill="#000000" stroke="none" />
  <g transform="translate(0.000000,719.000000) scale(0.100000,-0.100000)" fill="#ffffff" stroke="none" />
  <g transform="translate(0.000000,719.000000) scale(0.100000,-0.100000)" fill="#00ffff" stroke="none" />
  <g transform="translate(0.000000,719.000000) scale(0.100000,-0.100000)" fill="#ff00ff" stroke="none" />
  <g transform="translate(0.000000,719.000000) scale(0.100000,-0.100000)" fill="#0000ff" stroke="none" />
  <g transform="translate(0.000000,719.000000) scale(0.100000,-0.100000)" fill="#ffff00" stroke="none" />
  <g transform="translate(0.000000,719.000000) scale(0.100000,-0.100000)" fill="#00ff00" stroke="none" />
  <g transform="translate(0.000000,719.000000) scale(0.100000,-0.100000)" fill="#ff0000" stroke="none" />
  <g transform="translate(0.000000,719.000000) scale(0.100000,-0.100000)" fill="#c0c0c0" stroke="none" />
  <g transform="translate(0.000000,719.000000) scale(0.100000,-0.100000)" fill="#808080" stroke="none" />
  <g transform="translate(0.000000,719.000000) scale(0.100000,-0.100000)" fill="#008080" stroke="none" />
  <g transform="translate(0.000000,719.000000) scale(0.100000,-0.100000)" fill="#800080" stroke="none" />
  <g transform="translate(0.000000,719.000000) scale(0.100000,-0.100000)" fill="#000080" stroke="none" />
  <g transform="translate(0.000000,719.000000) scale(0.100000,-0.100000)" fill="#808000" stroke="none" />
  <g transform="translate(0.000000,719.000000) scale(0.100000,-0.100000)" fill="#008000" stroke="none" />
  <g transform="translate(0.000000,719.000000) scale(0.100000,-0.100000)" fill="#000000" stroke="none" />
  <g transform="translate(0.000000,719.000000) scale(0.100000,-0.100000)" fill="#000000" stroke="none" />
</svg>