<svg 
 xmlns="http://www.w3.org/2000/svg"
 xmlns:xlink="http://www.w3.org/1999/xlink"
 width="9px" height="10px">
<path fill-rule="evenodd"  fill="rgb(114, 114, 114)"
 d="M8.907,5.229 L4.569,9.889 C4.507,9.956 4.436,9.990 4.355,9.990 C4.275,9.990 4.203,9.956 4.141,9.889 L3.676,9.390 C3.614,9.323 3.583,9.246 3.583,9.160 C3.583,9.073 3.614,8.996 3.676,8.930 L7.334,4.999 L3.676,1.069 C3.614,1.003 3.583,0.926 3.583,0.839 C3.583,0.752 3.614,0.676 3.676,0.609 L4.141,0.109 C4.203,0.042 4.275,0.009 4.355,0.009 C4.436,0.009 4.507,0.042 4.569,0.109 L8.907,4.769 C8.969,4.836 8.1000,4.913 8.1000,4.999 C8.1000,5.086 8.969,5.163 8.907,5.229 ZM5.425,4.999 C5.425,5.086 5.395,5.163 5.332,5.229 L0.995,9.889 C0.933,9.956 0.861,9.990 0.781,9.990 C0.700,9.990 0.629,9.956 0.567,9.889 L0.101,9.390 C0.040,9.323 0.008,9.246 0.008,9.160 C0.008,9.073 0.040,8.996 0.101,8.930 L3.759,4.999 L0.101,1.069 C0.040,1.003 0.008,0.926 0.008,0.839 C0.008,0.752 0.040,0.676 0.101,0.609 L0.567,0.109 C0.629,0.042 0.700,0.009 0.781,0.009 C0.861,0.009 0.933,0.042 0.995,0.109 L5.332,4.769 C5.395,4.836 5.425,4.913 5.425,4.999 Z"/>
</svg>