<svg 
 xmlns="http://www.w3.org/2000/svg"
 xmlns:xlink="http://www.w3.org/1999/xlink"
 width="16px" height="16px">
<path fill-rule="evenodd"  fill="rgb(114, 114, 114)"
 d="M7.999,-0.000 L0.228,6.858 C-0.040,7.095 -0.069,7.509 0.164,7.782 L0.164,7.782 C0.398,8.055 0.805,8.084 1.074,7.847 L1.360,7.595 L1.360,14.034 C1.360,15.120 2.226,15.1000 3.294,15.1000 L6.903,15.1000 L6.903,10.726 C6.903,10.093 7.408,9.580 8.031,9.580 L8.031,9.580 C8.654,9.580 9.159,10.093 9.159,10.726 L9.159,15.1000 L12.704,15.1000 C13.772,15.1000 14.638,15.120 14.638,14.034 L14.638,7.595 L14.924,7.847 C15.193,8.085 15.600,8.055 15.834,7.782 L15.834,7.782 C16.067,7.509 16.038,7.095 15.769,6.858 L7.999,-0.000 ZM13.349,14.034 C13.349,14.396 13.060,14.690 12.704,14.690 L10.448,14.690 L10.448,10.726 C10.448,9.370 9.366,8.270 8.031,8.270 L8.031,8.270 C6.696,8.270 5.614,9.370 5.614,10.726 L5.614,14.690 L3.294,14.690 C2.938,14.690 2.649,14.396 2.649,14.034 L2.649,6.457 L7.999,1.735 L13.349,6.457 L13.349,14.034 Z"/>
</svg>
