<?xml version="1.0" encoding="UTF-8"?>
<svg xmlns="http://www.w3.org/2000/svg" xmlns:xlink="http://www.w3.org/1999/xlink" width="15px" height="17px" viewBox="0 0 15 17" version="1.1">
<g id="surface1">
<path style=" stroke:none;fill-rule:nonzero;fill:rgb(0%,0%,0%);fill-opacity:1;" d="M 13.929688 1.0625 L 1.066406 1.0625 C 0.480469 1.0625 0 1.542969 0 2.136719 L 0 14.863281 C 0 15.457031 0.480469 15.9375 1.066406 15.9375 L 13.929688 15.9375 C 14.519531 15.9375 15 15.457031 15 14.863281 L 15 2.136719 C 15 1.542969 14.519531 1.0625 13.929688 1.0625 Z M 4.535156 13.8125 L 2.308594 13.8125 L 2.308594 6.714844 L 4.535156 6.714844 Z M 3.421875 5.742188 C 2.707031 5.742188 2.132812 5.167969 2.132812 4.464844 C 2.132812 3.761719 2.707031 3.1875 3.421875 3.1875 C 4.132812 3.1875 4.710938 3.761719 4.710938 4.464844 C 4.710938 5.171875 4.136719 5.742188 3.421875 5.742188 Z M 12.867188 13.8125 L 10.644531 13.8125 L 10.644531 10.359375 C 10.644531 9.535156 10.628906 8.476562 9.488281 8.476562 C 8.332031 8.476562 8.152344 9.375 8.152344 10.300781 L 8.152344 13.8125 L 5.929688 13.8125 L 5.929688 6.714844 L 8.0625 6.714844 L 8.0625 7.683594 L 8.09375 7.683594 C 8.390625 7.125 9.117188 6.539062 10.199219 6.539062 C 12.449219 6.539062 12.867188 8.007812 12.867188 9.921875 Z M 12.867188 13.8125 "/>
</g>
</svg>
